M48
;DRILL file {KiCad (5.0.2)-1} date 1/1/2019 4:04:37 PM
;FORMAT={-:-/ absolute / inch / decimal}
FMAT,2
INCH,TZ
T1C0.0150
T2C0.0217
T3C0.0300
T4C0.0315
T5C0.0354
T6C0.0461
T7C0.0591
%
G90
G05
T1
X6.655Y-4.355
T2
X6.54Y-4.47
X6.54Y-4.52
X6.54Y-4.57
T3
X6.03Y-4.61
X6.03Y-4.91
X6.13Y-4.61
X6.13Y-4.91
X6.23Y-4.61
X6.23Y-4.91
X6.33Y-4.61
X6.33Y-4.91
T4
X6.43Y-4.01
X6.43Y-4.31
X6.28Y-4.01
X6.28Y-4.31
X6.74Y-4.52
X7.04Y-4.52
X6.91Y-4.76
X6.91Y-4.8584
X6.88Y-4.01
X6.88Y-4.31
X6.58Y-4.76
X6.58Y-4.8387
X6.58Y-4.01
X6.58Y-4.31
X6.73Y-4.01
X6.73Y-4.31
X7.03Y-4.01
X7.03Y-4.31
T5
X5.81Y-2.85
X5.81Y-2.95
X6.08Y-4.1131
X6.08Y-4.2116
X6.08Y-4.31
X6.31Y-2.85
X6.31Y-2.95
T6
X5.48Y-4.81
T7
X5.48Y-4.0226
T0
M30
