G04 #@! TF.GenerationSoftware,KiCad,Pcbnew,(5.0.2)-1*
G04 #@! TF.CreationDate,2019-01-01T16:04:13-08:00*
G04 #@! TF.ProjectId,555_Badge,3535355f-4261-4646-9765-2e6b69636164,v01*
G04 #@! TF.SameCoordinates,Original*
G04 #@! TF.FileFunction,Soldermask,Top*
G04 #@! TF.FilePolarity,Negative*
%FSLAX46Y46*%
G04 Gerber Fmt 4.6, Leading zero omitted, Abs format (unit mm)*
G04 Created by KiCad (PCBNEW (5.0.2)-1) date 1/1/2019 4:04:13 PM*
%MOMM*%
%LPD*%
G01*
G04 APERTURE LIST*
%ADD10C,0.100000*%
G04 APERTURE END LIST*
D10*
G36*
X153399085Y-123932435D02*
X153547004Y-123993705D01*
X153680133Y-124082659D01*
X153793341Y-124195867D01*
X153882295Y-124328996D01*
X153943565Y-124476915D01*
X153974800Y-124633945D01*
X153974800Y-124794055D01*
X153943565Y-124951085D01*
X153882295Y-125099004D01*
X153793341Y-125232133D01*
X153680133Y-125345341D01*
X153547004Y-125434295D01*
X153399085Y-125495565D01*
X153242055Y-125526800D01*
X153081945Y-125526800D01*
X152924915Y-125495565D01*
X152776996Y-125434295D01*
X152643867Y-125345341D01*
X152530659Y-125232133D01*
X152441705Y-125099004D01*
X152380435Y-124951085D01*
X152349200Y-124794055D01*
X152349200Y-124633945D01*
X152380435Y-124476915D01*
X152441705Y-124328996D01*
X152530659Y-124195867D01*
X152643867Y-124082659D01*
X152776996Y-123993705D01*
X152924915Y-123932435D01*
X153081945Y-123901200D01*
X153242055Y-123901200D01*
X153399085Y-123932435D01*
X153399085Y-123932435D01*
G37*
G36*
X155939085Y-123932435D02*
X156087004Y-123993705D01*
X156220133Y-124082659D01*
X156333341Y-124195867D01*
X156422295Y-124328996D01*
X156483565Y-124476915D01*
X156514800Y-124633945D01*
X156514800Y-124794055D01*
X156483565Y-124951085D01*
X156422295Y-125099004D01*
X156333341Y-125232133D01*
X156220133Y-125345341D01*
X156087004Y-125434295D01*
X155939085Y-125495565D01*
X155782055Y-125526800D01*
X155621945Y-125526800D01*
X155464915Y-125495565D01*
X155316996Y-125434295D01*
X155183867Y-125345341D01*
X155070659Y-125232133D01*
X154981705Y-125099004D01*
X154920435Y-124951085D01*
X154889200Y-124794055D01*
X154889200Y-124633945D01*
X154920435Y-124476915D01*
X154981705Y-124328996D01*
X155070659Y-124195867D01*
X155183867Y-124082659D01*
X155316996Y-123993705D01*
X155464915Y-123932435D01*
X155621945Y-123901200D01*
X155782055Y-123901200D01*
X155939085Y-123932435D01*
X155939085Y-123932435D01*
G37*
G36*
X161019085Y-123932435D02*
X161167004Y-123993705D01*
X161300133Y-124082659D01*
X161413341Y-124195867D01*
X161502295Y-124328996D01*
X161563565Y-124476915D01*
X161594800Y-124633945D01*
X161594800Y-124794055D01*
X161563565Y-124951085D01*
X161502295Y-125099004D01*
X161413341Y-125232133D01*
X161300133Y-125345341D01*
X161167004Y-125434295D01*
X161019085Y-125495565D01*
X160862055Y-125526800D01*
X160701945Y-125526800D01*
X160544915Y-125495565D01*
X160396996Y-125434295D01*
X160263867Y-125345341D01*
X160150659Y-125232133D01*
X160061705Y-125099004D01*
X160000435Y-124951085D01*
X159969200Y-124794055D01*
X159969200Y-124633945D01*
X160000435Y-124476915D01*
X160061705Y-124328996D01*
X160150659Y-124195867D01*
X160263867Y-124082659D01*
X160396996Y-123993705D01*
X160544915Y-123932435D01*
X160701945Y-123901200D01*
X160862055Y-123901200D01*
X161019085Y-123932435D01*
X161019085Y-123932435D01*
G37*
G36*
X158479085Y-123932435D02*
X158627004Y-123993705D01*
X158760133Y-124082659D01*
X158873341Y-124195867D01*
X158962295Y-124328996D01*
X159023565Y-124476915D01*
X159054800Y-124633945D01*
X159054800Y-124794055D01*
X159023565Y-124951085D01*
X158962295Y-125099004D01*
X158873341Y-125232133D01*
X158760133Y-125345341D01*
X158627004Y-125434295D01*
X158479085Y-125495565D01*
X158322055Y-125526800D01*
X158161945Y-125526800D01*
X158004915Y-125495565D01*
X157856996Y-125434295D01*
X157723867Y-125345341D01*
X157610659Y-125232133D01*
X157521705Y-125099004D01*
X157460435Y-124951085D01*
X157429200Y-124794055D01*
X157429200Y-124633945D01*
X157460435Y-124476915D01*
X157521705Y-124328996D01*
X157610659Y-124195867D01*
X157723867Y-124082659D01*
X157856996Y-123993705D01*
X158004915Y-123932435D01*
X158161945Y-123901200D01*
X158322055Y-123901200D01*
X158479085Y-123932435D01*
X158479085Y-123932435D01*
G37*
G36*
X175762169Y-122585895D02*
X175917005Y-122650031D01*
X176056354Y-122743140D01*
X176174860Y-122861646D01*
X176267969Y-123000995D01*
X176332105Y-123155831D01*
X176364800Y-123320203D01*
X176364800Y-123487797D01*
X176332105Y-123652169D01*
X176267969Y-123807005D01*
X176174860Y-123946354D01*
X176056354Y-124064860D01*
X175917005Y-124157969D01*
X175762169Y-124222105D01*
X175597797Y-124254800D01*
X175430203Y-124254800D01*
X175265831Y-124222105D01*
X175110995Y-124157969D01*
X174971646Y-124064860D01*
X174853140Y-123946354D01*
X174760031Y-123807005D01*
X174695895Y-123652169D01*
X174663200Y-123487797D01*
X174663200Y-123320203D01*
X174695895Y-123155831D01*
X174760031Y-123000995D01*
X174853140Y-122861646D01*
X174971646Y-122743140D01*
X175110995Y-122650031D01*
X175265831Y-122585895D01*
X175430203Y-122553200D01*
X175597797Y-122553200D01*
X175762169Y-122585895D01*
X175762169Y-122585895D01*
G37*
G36*
X167380169Y-122085895D02*
X167535005Y-122150031D01*
X167674354Y-122243140D01*
X167792860Y-122361646D01*
X167885969Y-122500995D01*
X167950105Y-122655831D01*
X167982800Y-122820203D01*
X167982800Y-122987797D01*
X167950105Y-123152169D01*
X167885969Y-123307005D01*
X167792860Y-123446354D01*
X167674354Y-123564860D01*
X167535005Y-123657969D01*
X167380169Y-123722105D01*
X167215797Y-123754800D01*
X167048203Y-123754800D01*
X166883831Y-123722105D01*
X166728995Y-123657969D01*
X166589646Y-123564860D01*
X166471140Y-123446354D01*
X166378031Y-123307005D01*
X166313895Y-123152169D01*
X166281200Y-122987797D01*
X166281200Y-122820203D01*
X166313895Y-122655831D01*
X166378031Y-122500995D01*
X166471140Y-122361646D01*
X166589646Y-122243140D01*
X166728995Y-122150031D01*
X166883831Y-122085895D01*
X167048203Y-122053200D01*
X167215797Y-122053200D01*
X167380169Y-122085895D01*
X167380169Y-122085895D01*
G37*
G36*
X140327800Y-123309800D02*
X138056200Y-123309800D01*
X138056200Y-121038200D01*
X140327800Y-121038200D01*
X140327800Y-123309800D01*
X140327800Y-123309800D01*
G37*
G36*
X176364800Y-121754800D02*
X174663200Y-121754800D01*
X174663200Y-120053200D01*
X176364800Y-120053200D01*
X176364800Y-121754800D01*
X176364800Y-121754800D01*
G37*
G36*
X167982800Y-121754800D02*
X166281200Y-121754800D01*
X166281200Y-120053200D01*
X167982800Y-120053200D01*
X167982800Y-121754800D01*
X167982800Y-121754800D01*
G37*
G36*
X161019085Y-116312435D02*
X161167004Y-116373705D01*
X161300133Y-116462659D01*
X161413341Y-116575867D01*
X161502295Y-116708996D01*
X161563565Y-116856915D01*
X161594800Y-117013945D01*
X161594800Y-117174055D01*
X161563565Y-117331085D01*
X161502295Y-117479004D01*
X161413341Y-117612133D01*
X161300133Y-117725341D01*
X161167004Y-117814295D01*
X161019085Y-117875565D01*
X160862055Y-117906800D01*
X160701945Y-117906800D01*
X160544915Y-117875565D01*
X160396996Y-117814295D01*
X160263867Y-117725341D01*
X160150659Y-117612133D01*
X160061705Y-117479004D01*
X160000435Y-117331085D01*
X159969200Y-117174055D01*
X159969200Y-117013945D01*
X160000435Y-116856915D01*
X160061705Y-116708996D01*
X160150659Y-116575867D01*
X160263867Y-116462659D01*
X160396996Y-116373705D01*
X160544915Y-116312435D01*
X160701945Y-116281200D01*
X160862055Y-116281200D01*
X161019085Y-116312435D01*
X161019085Y-116312435D01*
G37*
G36*
X155939085Y-116312435D02*
X156087004Y-116373705D01*
X156220133Y-116462659D01*
X156333341Y-116575867D01*
X156422295Y-116708996D01*
X156483565Y-116856915D01*
X156514800Y-117013945D01*
X156514800Y-117174055D01*
X156483565Y-117331085D01*
X156422295Y-117479004D01*
X156333341Y-117612133D01*
X156220133Y-117725341D01*
X156087004Y-117814295D01*
X155939085Y-117875565D01*
X155782055Y-117906800D01*
X155621945Y-117906800D01*
X155464915Y-117875565D01*
X155316996Y-117814295D01*
X155183867Y-117725341D01*
X155070659Y-117612133D01*
X154981705Y-117479004D01*
X154920435Y-117331085D01*
X154889200Y-117174055D01*
X154889200Y-117013945D01*
X154920435Y-116856915D01*
X154981705Y-116708996D01*
X155070659Y-116575867D01*
X155183867Y-116462659D01*
X155316996Y-116373705D01*
X155464915Y-116312435D01*
X155621945Y-116281200D01*
X155782055Y-116281200D01*
X155939085Y-116312435D01*
X155939085Y-116312435D01*
G37*
G36*
X158479085Y-116312435D02*
X158627004Y-116373705D01*
X158760133Y-116462659D01*
X158873341Y-116575867D01*
X158962295Y-116708996D01*
X159023565Y-116856915D01*
X159054800Y-117013945D01*
X159054800Y-117174055D01*
X159023565Y-117331085D01*
X158962295Y-117479004D01*
X158873341Y-117612133D01*
X158760133Y-117725341D01*
X158627004Y-117814295D01*
X158479085Y-117875565D01*
X158322055Y-117906800D01*
X158161945Y-117906800D01*
X158004915Y-117875565D01*
X157856996Y-117814295D01*
X157723867Y-117725341D01*
X157610659Y-117612133D01*
X157521705Y-117479004D01*
X157460435Y-117331085D01*
X157429200Y-117174055D01*
X157429200Y-117013945D01*
X157460435Y-116856915D01*
X157521705Y-116708996D01*
X157610659Y-116575867D01*
X157723867Y-116462659D01*
X157856996Y-116373705D01*
X158004915Y-116312435D01*
X158161945Y-116281200D01*
X158322055Y-116281200D01*
X158479085Y-116312435D01*
X158479085Y-116312435D01*
G37*
G36*
X153399085Y-116312435D02*
X153547004Y-116373705D01*
X153680133Y-116462659D01*
X153793341Y-116575867D01*
X153882295Y-116708996D01*
X153943565Y-116856915D01*
X153974800Y-117013945D01*
X153974800Y-117174055D01*
X153943565Y-117331085D01*
X153882295Y-117479004D01*
X153793341Y-117612133D01*
X153680133Y-117725341D01*
X153547004Y-117814295D01*
X153399085Y-117875565D01*
X153242055Y-117906800D01*
X153081945Y-117906800D01*
X152924915Y-117875565D01*
X152776996Y-117814295D01*
X152643867Y-117725341D01*
X152530659Y-117612133D01*
X152441705Y-117479004D01*
X152380435Y-117331085D01*
X152349200Y-117174055D01*
X152349200Y-117013945D01*
X152380435Y-116856915D01*
X152441705Y-116708996D01*
X152530659Y-116575867D01*
X152643867Y-116462659D01*
X152776996Y-116373705D01*
X152924915Y-116312435D01*
X153081945Y-116281200D01*
X153242055Y-116281200D01*
X153399085Y-116312435D01*
X153399085Y-116312435D01*
G37*
G36*
X166462416Y-112994031D02*
X166473977Y-112995170D01*
X166525889Y-113010918D01*
X166577802Y-113026665D01*
X166632738Y-113056029D01*
X166673486Y-113077809D01*
X166673487Y-113077810D01*
X166673489Y-113077811D01*
X166757359Y-113146641D01*
X166826189Y-113230511D01*
X166877335Y-113326198D01*
X166908830Y-113430024D01*
X166919465Y-113538000D01*
X166908830Y-113645976D01*
X166877335Y-113749802D01*
X166826189Y-113845489D01*
X166757359Y-113929359D01*
X166673489Y-113998189D01*
X166673487Y-113998190D01*
X166673486Y-113998191D01*
X166636126Y-114018160D01*
X166577802Y-114049335D01*
X166564452Y-114053385D01*
X166541817Y-114062760D01*
X166521442Y-114076374D01*
X166504115Y-114093701D01*
X166490502Y-114114076D01*
X166481124Y-114136715D01*
X166476344Y-114160748D01*
X166476344Y-114185253D01*
X166481125Y-114209286D01*
X166490502Y-114231925D01*
X166504116Y-114252300D01*
X166521443Y-114269627D01*
X166541818Y-114283240D01*
X166564452Y-114292615D01*
X166577802Y-114296665D01*
X166632738Y-114326029D01*
X166673486Y-114347809D01*
X166673487Y-114347810D01*
X166673489Y-114347811D01*
X166757359Y-114416641D01*
X166826189Y-114500511D01*
X166877335Y-114596198D01*
X166908830Y-114700024D01*
X166919465Y-114808000D01*
X166908830Y-114915976D01*
X166877335Y-115019802D01*
X166826189Y-115115489D01*
X166757359Y-115199359D01*
X166673489Y-115268189D01*
X166629008Y-115291965D01*
X166608641Y-115305574D01*
X166591314Y-115322901D01*
X166577700Y-115343275D01*
X166568322Y-115365914D01*
X166563542Y-115389948D01*
X166563542Y-115414452D01*
X166568322Y-115438486D01*
X166577700Y-115461125D01*
X166591314Y-115481499D01*
X166608641Y-115498826D01*
X166629015Y-115512440D01*
X166651654Y-115521818D01*
X166675688Y-115526598D01*
X166687940Y-115527200D01*
X166916800Y-115527200D01*
X166916800Y-116628800D01*
X165315200Y-116628800D01*
X165315200Y-115527200D01*
X165544060Y-115527200D01*
X165568446Y-115524798D01*
X165591895Y-115517685D01*
X165613506Y-115506134D01*
X165632448Y-115490588D01*
X165647994Y-115471646D01*
X165659545Y-115450035D01*
X165666658Y-115426586D01*
X165669060Y-115402200D01*
X165666658Y-115377814D01*
X165659545Y-115354365D01*
X165647994Y-115332754D01*
X165632448Y-115313812D01*
X165613506Y-115298266D01*
X165603000Y-115291969D01*
X165558511Y-115268189D01*
X165474641Y-115199359D01*
X165405811Y-115115489D01*
X165354665Y-115019802D01*
X165323170Y-114915976D01*
X165312535Y-114808000D01*
X165323170Y-114700024D01*
X165354665Y-114596198D01*
X165405811Y-114500511D01*
X165474641Y-114416641D01*
X165558511Y-114347811D01*
X165558513Y-114347810D01*
X165558514Y-114347809D01*
X165599262Y-114326029D01*
X165654198Y-114296665D01*
X165667548Y-114292615D01*
X165690183Y-114283240D01*
X165710558Y-114269626D01*
X165727885Y-114252299D01*
X165741498Y-114231924D01*
X165750876Y-114209285D01*
X165755656Y-114185252D01*
X165755656Y-114160747D01*
X165750875Y-114136714D01*
X165741498Y-114114075D01*
X165727884Y-114093700D01*
X165710557Y-114076373D01*
X165690182Y-114062760D01*
X165667548Y-114053385D01*
X165654198Y-114049335D01*
X165595874Y-114018160D01*
X165558514Y-113998191D01*
X165558513Y-113998190D01*
X165558511Y-113998189D01*
X165474641Y-113929359D01*
X165405811Y-113845489D01*
X165354665Y-113749802D01*
X165323170Y-113645976D01*
X165312535Y-113538000D01*
X165323170Y-113430024D01*
X165354665Y-113326198D01*
X165405811Y-113230511D01*
X165474641Y-113146641D01*
X165558511Y-113077811D01*
X165558513Y-113077810D01*
X165558514Y-113077809D01*
X165599262Y-113056029D01*
X165654198Y-113026665D01*
X165706111Y-113010918D01*
X165758023Y-112995170D01*
X165769584Y-112994031D01*
X165838943Y-112987200D01*
X166393057Y-112987200D01*
X166462416Y-112994031D01*
X166462416Y-112994031D01*
G37*
G36*
X178982787Y-113969510D02*
X179143160Y-114018160D01*
X179143162Y-114018161D01*
X179290966Y-114097163D01*
X179420517Y-114203483D01*
X179526837Y-114333034D01*
X179605839Y-114480838D01*
X179605840Y-114480840D01*
X179654490Y-114641213D01*
X179670916Y-114808000D01*
X179654490Y-114974787D01*
X179611808Y-115115486D01*
X179605839Y-115135162D01*
X179526837Y-115282966D01*
X179420517Y-115412517D01*
X179290966Y-115518837D01*
X179143162Y-115597839D01*
X179143160Y-115597840D01*
X178982787Y-115646490D01*
X178857794Y-115658800D01*
X178774206Y-115658800D01*
X178649213Y-115646490D01*
X178488840Y-115597840D01*
X178488838Y-115597839D01*
X178341034Y-115518837D01*
X178211483Y-115412517D01*
X178105163Y-115282966D01*
X178026161Y-115135162D01*
X178020192Y-115115486D01*
X177977510Y-114974787D01*
X177961084Y-114808000D01*
X177977510Y-114641213D01*
X178026160Y-114480840D01*
X178026161Y-114480838D01*
X178105163Y-114333034D01*
X178211483Y-114203483D01*
X178341034Y-114097163D01*
X178488838Y-114018161D01*
X178488840Y-114018160D01*
X178649213Y-113969510D01*
X178774206Y-113957200D01*
X178857794Y-113957200D01*
X178982787Y-113969510D01*
X178982787Y-113969510D01*
G37*
G36*
X171444169Y-113989895D02*
X171599005Y-114054031D01*
X171738354Y-114147140D01*
X171856860Y-114265646D01*
X171949969Y-114404995D01*
X172014105Y-114559831D01*
X172046800Y-114724203D01*
X172046800Y-114891797D01*
X172014105Y-115056169D01*
X171949969Y-115211005D01*
X171856860Y-115350354D01*
X171738354Y-115468860D01*
X171599005Y-115561969D01*
X171444169Y-115626105D01*
X171279797Y-115658800D01*
X171112203Y-115658800D01*
X170947831Y-115626105D01*
X170792995Y-115561969D01*
X170653646Y-115468860D01*
X170535140Y-115350354D01*
X170442031Y-115211005D01*
X170377895Y-115056169D01*
X170345200Y-114891797D01*
X170345200Y-114724203D01*
X170377895Y-114559831D01*
X170442031Y-114404995D01*
X170535140Y-114265646D01*
X170653646Y-114147140D01*
X170792995Y-114054031D01*
X170947831Y-113989895D01*
X171112203Y-113957200D01*
X171279797Y-113957200D01*
X171444169Y-113989895D01*
X171444169Y-113989895D01*
G37*
G36*
X155432800Y-110474800D02*
X153431200Y-110474800D01*
X153431200Y-108473200D01*
X155432800Y-108473200D01*
X155432800Y-110474800D01*
X155432800Y-110474800D01*
G37*
G36*
X175000169Y-108655895D02*
X175155005Y-108720031D01*
X175294354Y-108813140D01*
X175412860Y-108931646D01*
X175505969Y-109070995D01*
X175570105Y-109225831D01*
X175602800Y-109390203D01*
X175602800Y-109557797D01*
X175570105Y-109722169D01*
X175505969Y-109877005D01*
X175412860Y-110016354D01*
X175294354Y-110134860D01*
X175155005Y-110227969D01*
X175000169Y-110292105D01*
X174835797Y-110324800D01*
X174668203Y-110324800D01*
X174503831Y-110292105D01*
X174348995Y-110227969D01*
X174209646Y-110134860D01*
X174091140Y-110016354D01*
X173998031Y-109877005D01*
X173933895Y-109722169D01*
X173901200Y-109557797D01*
X173901200Y-109390203D01*
X173933895Y-109225831D01*
X173998031Y-109070995D01*
X174091140Y-108931646D01*
X174209646Y-108813140D01*
X174348995Y-108720031D01*
X174503831Y-108655895D01*
X174668203Y-108623200D01*
X174835797Y-108623200D01*
X175000169Y-108655895D01*
X175000169Y-108655895D01*
G37*
G36*
X171190169Y-108655895D02*
X171345005Y-108720031D01*
X171484354Y-108813140D01*
X171602860Y-108931646D01*
X171695969Y-109070995D01*
X171760105Y-109225831D01*
X171792800Y-109390203D01*
X171792800Y-109557797D01*
X171760105Y-109722169D01*
X171695969Y-109877005D01*
X171602860Y-110016354D01*
X171484354Y-110134860D01*
X171345005Y-110227969D01*
X171190169Y-110292105D01*
X171025797Y-110324800D01*
X170858203Y-110324800D01*
X170693831Y-110292105D01*
X170538995Y-110227969D01*
X170399646Y-110134860D01*
X170281140Y-110016354D01*
X170188031Y-109877005D01*
X170123895Y-109722169D01*
X170091200Y-109557797D01*
X170091200Y-109390203D01*
X170123895Y-109225831D01*
X170188031Y-109070995D01*
X170281140Y-108931646D01*
X170399646Y-108813140D01*
X170538995Y-108720031D01*
X170693831Y-108655895D01*
X170858203Y-108623200D01*
X171025797Y-108623200D01*
X171190169Y-108655895D01*
X171190169Y-108655895D01*
G37*
G36*
X159678787Y-108635510D02*
X159839160Y-108684160D01*
X159839162Y-108684161D01*
X159986966Y-108763163D01*
X160116517Y-108869483D01*
X160222837Y-108999034D01*
X160301839Y-109146838D01*
X160301840Y-109146840D01*
X160350490Y-109307213D01*
X160366916Y-109474000D01*
X160350490Y-109640787D01*
X160301840Y-109801160D01*
X160301839Y-109801162D01*
X160222837Y-109948966D01*
X160116517Y-110078517D01*
X159986966Y-110184837D01*
X159839162Y-110263839D01*
X159839160Y-110263840D01*
X159678787Y-110312490D01*
X159553794Y-110324800D01*
X159470206Y-110324800D01*
X159345213Y-110312490D01*
X159184840Y-110263840D01*
X159184838Y-110263839D01*
X159037034Y-110184837D01*
X158907483Y-110078517D01*
X158801163Y-109948966D01*
X158722161Y-109801162D01*
X158722160Y-109801160D01*
X158673510Y-109640787D01*
X158657084Y-109474000D01*
X158673510Y-109307213D01*
X158722160Y-109146840D01*
X158722161Y-109146838D01*
X158801163Y-108999034D01*
X158907483Y-108869483D01*
X159037034Y-108763163D01*
X159184838Y-108684161D01*
X159184840Y-108684160D01*
X159345213Y-108635510D01*
X159470206Y-108623200D01*
X159553794Y-108623200D01*
X159678787Y-108635510D01*
X159678787Y-108635510D01*
G37*
G36*
X167380169Y-108655895D02*
X167535005Y-108720031D01*
X167674354Y-108813140D01*
X167792860Y-108931646D01*
X167885969Y-109070995D01*
X167950105Y-109225831D01*
X167982800Y-109390203D01*
X167982800Y-109557797D01*
X167950105Y-109722169D01*
X167885969Y-109877005D01*
X167792860Y-110016354D01*
X167674354Y-110134860D01*
X167535005Y-110227969D01*
X167380169Y-110292105D01*
X167215797Y-110324800D01*
X167048203Y-110324800D01*
X166883831Y-110292105D01*
X166728995Y-110227969D01*
X166589646Y-110134860D01*
X166471140Y-110016354D01*
X166378031Y-109877005D01*
X166313895Y-109722169D01*
X166281200Y-109557797D01*
X166281200Y-109390203D01*
X166313895Y-109225831D01*
X166378031Y-109070995D01*
X166471140Y-108931646D01*
X166589646Y-108813140D01*
X166728995Y-108720031D01*
X166883831Y-108655895D01*
X167048203Y-108623200D01*
X167215797Y-108623200D01*
X167380169Y-108655895D01*
X167380169Y-108655895D01*
G37*
G36*
X163570169Y-108655895D02*
X163725005Y-108720031D01*
X163864354Y-108813140D01*
X163982860Y-108931646D01*
X164075969Y-109070995D01*
X164140105Y-109225831D01*
X164172800Y-109390203D01*
X164172800Y-109557797D01*
X164140105Y-109722169D01*
X164075969Y-109877005D01*
X163982860Y-110016354D01*
X163864354Y-110134860D01*
X163725005Y-110227969D01*
X163570169Y-110292105D01*
X163405797Y-110324800D01*
X163238203Y-110324800D01*
X163073831Y-110292105D01*
X162918995Y-110227969D01*
X162779646Y-110134860D01*
X162661140Y-110016354D01*
X162568031Y-109877005D01*
X162503895Y-109722169D01*
X162471200Y-109557797D01*
X162471200Y-109390203D01*
X162503895Y-109225831D01*
X162568031Y-109070995D01*
X162661140Y-108931646D01*
X162779646Y-108813140D01*
X162918995Y-108720031D01*
X163073831Y-108655895D01*
X163238203Y-108623200D01*
X163405797Y-108623200D01*
X163570169Y-108655895D01*
X163570169Y-108655895D01*
G37*
G36*
X178728787Y-108635510D02*
X178889160Y-108684160D01*
X178889162Y-108684161D01*
X179036966Y-108763163D01*
X179166517Y-108869483D01*
X179272837Y-108999034D01*
X179351839Y-109146838D01*
X179351840Y-109146840D01*
X179400490Y-109307213D01*
X179416916Y-109474000D01*
X179400490Y-109640787D01*
X179351840Y-109801160D01*
X179351839Y-109801162D01*
X179272837Y-109948966D01*
X179166517Y-110078517D01*
X179036966Y-110184837D01*
X178889162Y-110263839D01*
X178889160Y-110263840D01*
X178728787Y-110312490D01*
X178603794Y-110324800D01*
X178520206Y-110324800D01*
X178395213Y-110312490D01*
X178234840Y-110263840D01*
X178234838Y-110263839D01*
X178087034Y-110184837D01*
X177957483Y-110078517D01*
X177851163Y-109948966D01*
X177772161Y-109801162D01*
X177772160Y-109801160D01*
X177723510Y-109640787D01*
X177707084Y-109474000D01*
X177723510Y-109307213D01*
X177772160Y-109146840D01*
X177772161Y-109146838D01*
X177851163Y-108999034D01*
X177957483Y-108869483D01*
X178087034Y-108763163D01*
X178234838Y-108684161D01*
X178234840Y-108684160D01*
X178395213Y-108635510D01*
X178520206Y-108623200D01*
X178603794Y-108623200D01*
X178728787Y-108635510D01*
X178728787Y-108635510D01*
G37*
G36*
X154723922Y-106011660D02*
X154906055Y-106087102D01*
X154906056Y-106087103D01*
X155069973Y-106196628D01*
X155209372Y-106336027D01*
X155282389Y-106445305D01*
X155318898Y-106499945D01*
X155394340Y-106682078D01*
X155432800Y-106875428D01*
X155432800Y-107072572D01*
X155394340Y-107265922D01*
X155318898Y-107448055D01*
X155318897Y-107448056D01*
X155209372Y-107611973D01*
X155069973Y-107751372D01*
X154960695Y-107824389D01*
X154906055Y-107860898D01*
X154723922Y-107936340D01*
X154530572Y-107974800D01*
X154333428Y-107974800D01*
X154140078Y-107936340D01*
X153957945Y-107860898D01*
X153903305Y-107824389D01*
X153794027Y-107751372D01*
X153654628Y-107611973D01*
X153545103Y-107448056D01*
X153545102Y-107448055D01*
X153469660Y-107265922D01*
X153431200Y-107072572D01*
X153431200Y-106875428D01*
X153469660Y-106682078D01*
X153545102Y-106499945D01*
X153581611Y-106445305D01*
X153654628Y-106336027D01*
X153794027Y-106196628D01*
X153957944Y-106087103D01*
X153957945Y-106087102D01*
X154140078Y-106011660D01*
X154333428Y-105973200D01*
X154530572Y-105973200D01*
X154723922Y-106011660D01*
X154723922Y-106011660D01*
G37*
G36*
X154723922Y-103511660D02*
X154906055Y-103587102D01*
X154906056Y-103587103D01*
X155069973Y-103696628D01*
X155209372Y-103836027D01*
X155282389Y-103945305D01*
X155318898Y-103999945D01*
X155394340Y-104182078D01*
X155432800Y-104375428D01*
X155432800Y-104572572D01*
X155394340Y-104765922D01*
X155318898Y-104948055D01*
X155318897Y-104948056D01*
X155209372Y-105111973D01*
X155069973Y-105251372D01*
X154960695Y-105324389D01*
X154906055Y-105360898D01*
X154723922Y-105436340D01*
X154530572Y-105474800D01*
X154333428Y-105474800D01*
X154140078Y-105436340D01*
X153957945Y-105360898D01*
X153903305Y-105324389D01*
X153794027Y-105251372D01*
X153654628Y-105111973D01*
X153545103Y-104948056D01*
X153545102Y-104948055D01*
X153469660Y-104765922D01*
X153431200Y-104572572D01*
X153431200Y-104375428D01*
X153469660Y-104182078D01*
X153545102Y-103999945D01*
X153581611Y-103945305D01*
X153654628Y-103836027D01*
X153794027Y-103696628D01*
X153957944Y-103587103D01*
X153957945Y-103587102D01*
X154140078Y-103511660D01*
X154333428Y-103473200D01*
X154530572Y-103473200D01*
X154723922Y-103511660D01*
X154723922Y-103511660D01*
G37*
G36*
X139571429Y-100923189D02*
X139808159Y-101021245D01*
X140021215Y-101163605D01*
X140202395Y-101344785D01*
X140344755Y-101557841D01*
X140442811Y-101794571D01*
X140492800Y-102045881D01*
X140492800Y-102302119D01*
X140442811Y-102553429D01*
X140344755Y-102790159D01*
X140202395Y-103003215D01*
X140021215Y-103184395D01*
X139808159Y-103326755D01*
X139571429Y-103424811D01*
X139320119Y-103474800D01*
X139063881Y-103474800D01*
X138812571Y-103424811D01*
X138575841Y-103326755D01*
X138362785Y-103184395D01*
X138181605Y-103003215D01*
X138039245Y-102790159D01*
X137941189Y-102553429D01*
X137891200Y-102302119D01*
X137891200Y-102045881D01*
X137941189Y-101794571D01*
X138039245Y-101557841D01*
X138181605Y-101344785D01*
X138362785Y-101163605D01*
X138575841Y-101021245D01*
X138812571Y-100923189D01*
X139063881Y-100873200D01*
X139320119Y-100873200D01*
X139571429Y-100923189D01*
X139571429Y-100923189D01*
G37*
G36*
X171108787Y-101015510D02*
X171269160Y-101064160D01*
X171269162Y-101064161D01*
X171416966Y-101143163D01*
X171546517Y-101249483D01*
X171652837Y-101379034D01*
X171731839Y-101526838D01*
X171731840Y-101526840D01*
X171780490Y-101687213D01*
X171796916Y-101854000D01*
X171780490Y-102020787D01*
X171731840Y-102181160D01*
X171731839Y-102181162D01*
X171652837Y-102328966D01*
X171546517Y-102458517D01*
X171416966Y-102564837D01*
X171269162Y-102643839D01*
X171269160Y-102643840D01*
X171108787Y-102692490D01*
X170983794Y-102704800D01*
X170900206Y-102704800D01*
X170775213Y-102692490D01*
X170614840Y-102643840D01*
X170614838Y-102643839D01*
X170467034Y-102564837D01*
X170337483Y-102458517D01*
X170231163Y-102328966D01*
X170152161Y-102181162D01*
X170152160Y-102181160D01*
X170103510Y-102020787D01*
X170087084Y-101854000D01*
X170103510Y-101687213D01*
X170152160Y-101526840D01*
X170152161Y-101526838D01*
X170231163Y-101379034D01*
X170337483Y-101249483D01*
X170467034Y-101143163D01*
X170614838Y-101064161D01*
X170614840Y-101064160D01*
X170775213Y-101015510D01*
X170900206Y-101003200D01*
X170983794Y-101003200D01*
X171108787Y-101015510D01*
X171108787Y-101015510D01*
G37*
G36*
X167298787Y-101015510D02*
X167459160Y-101064160D01*
X167459162Y-101064161D01*
X167606966Y-101143163D01*
X167736517Y-101249483D01*
X167842837Y-101379034D01*
X167921839Y-101526838D01*
X167921840Y-101526840D01*
X167970490Y-101687213D01*
X167986916Y-101854000D01*
X167970490Y-102020787D01*
X167921840Y-102181160D01*
X167921839Y-102181162D01*
X167842837Y-102328966D01*
X167736517Y-102458517D01*
X167606966Y-102564837D01*
X167459162Y-102643839D01*
X167459160Y-102643840D01*
X167298787Y-102692490D01*
X167173794Y-102704800D01*
X167090206Y-102704800D01*
X166965213Y-102692490D01*
X166804840Y-102643840D01*
X166804838Y-102643839D01*
X166657034Y-102564837D01*
X166527483Y-102458517D01*
X166421163Y-102328966D01*
X166342161Y-102181162D01*
X166342160Y-102181160D01*
X166293510Y-102020787D01*
X166277084Y-101854000D01*
X166293510Y-101687213D01*
X166342160Y-101526840D01*
X166342161Y-101526838D01*
X166421163Y-101379034D01*
X166527483Y-101249483D01*
X166657034Y-101143163D01*
X166804838Y-101064161D01*
X166804840Y-101064160D01*
X166965213Y-101015510D01*
X167090206Y-101003200D01*
X167173794Y-101003200D01*
X167298787Y-101015510D01*
X167298787Y-101015510D01*
G37*
G36*
X163488787Y-101015510D02*
X163649160Y-101064160D01*
X163649162Y-101064161D01*
X163796966Y-101143163D01*
X163926517Y-101249483D01*
X164032837Y-101379034D01*
X164111839Y-101526838D01*
X164111840Y-101526840D01*
X164160490Y-101687213D01*
X164176916Y-101854000D01*
X164160490Y-102020787D01*
X164111840Y-102181160D01*
X164111839Y-102181162D01*
X164032837Y-102328966D01*
X163926517Y-102458517D01*
X163796966Y-102564837D01*
X163649162Y-102643839D01*
X163649160Y-102643840D01*
X163488787Y-102692490D01*
X163363794Y-102704800D01*
X163280206Y-102704800D01*
X163155213Y-102692490D01*
X162994840Y-102643840D01*
X162994838Y-102643839D01*
X162847034Y-102564837D01*
X162717483Y-102458517D01*
X162611163Y-102328966D01*
X162532161Y-102181162D01*
X162532160Y-102181160D01*
X162483510Y-102020787D01*
X162467084Y-101854000D01*
X162483510Y-101687213D01*
X162532160Y-101526840D01*
X162532161Y-101526838D01*
X162611163Y-101379034D01*
X162717483Y-101249483D01*
X162847034Y-101143163D01*
X162994838Y-101064161D01*
X162994840Y-101064160D01*
X163155213Y-101015510D01*
X163280206Y-101003200D01*
X163363794Y-101003200D01*
X163488787Y-101015510D01*
X163488787Y-101015510D01*
G37*
G36*
X178810169Y-101035895D02*
X178965005Y-101100031D01*
X179104354Y-101193140D01*
X179222860Y-101311646D01*
X179315969Y-101450995D01*
X179380105Y-101605831D01*
X179412800Y-101770203D01*
X179412800Y-101937797D01*
X179380105Y-102102169D01*
X179315969Y-102257005D01*
X179222860Y-102396354D01*
X179104354Y-102514860D01*
X178965005Y-102607969D01*
X178810169Y-102672105D01*
X178645797Y-102704800D01*
X178478203Y-102704800D01*
X178313831Y-102672105D01*
X178158995Y-102607969D01*
X178019646Y-102514860D01*
X177901140Y-102396354D01*
X177808031Y-102257005D01*
X177743895Y-102102169D01*
X177711200Y-101937797D01*
X177711200Y-101770203D01*
X177743895Y-101605831D01*
X177808031Y-101450995D01*
X177901140Y-101311646D01*
X178019646Y-101193140D01*
X178158995Y-101100031D01*
X178313831Y-101035895D01*
X178478203Y-101003200D01*
X178645797Y-101003200D01*
X178810169Y-101035895D01*
X178810169Y-101035895D01*
G37*
G36*
X159760169Y-101035895D02*
X159915005Y-101100031D01*
X160054354Y-101193140D01*
X160172860Y-101311646D01*
X160265969Y-101450995D01*
X160330105Y-101605831D01*
X160362800Y-101770203D01*
X160362800Y-101937797D01*
X160330105Y-102102169D01*
X160265969Y-102257005D01*
X160172860Y-102396354D01*
X160054354Y-102514860D01*
X159915005Y-102607969D01*
X159760169Y-102672105D01*
X159595797Y-102704800D01*
X159428203Y-102704800D01*
X159263831Y-102672105D01*
X159108995Y-102607969D01*
X158969646Y-102514860D01*
X158851140Y-102396354D01*
X158758031Y-102257005D01*
X158693895Y-102102169D01*
X158661200Y-101937797D01*
X158661200Y-101770203D01*
X158693895Y-101605831D01*
X158758031Y-101450995D01*
X158851140Y-101311646D01*
X158969646Y-101193140D01*
X159108995Y-101100031D01*
X159263831Y-101035895D01*
X159428203Y-101003200D01*
X159595797Y-101003200D01*
X159760169Y-101035895D01*
X159760169Y-101035895D01*
G37*
G36*
X174918787Y-101015510D02*
X175079160Y-101064160D01*
X175079162Y-101064161D01*
X175226966Y-101143163D01*
X175356517Y-101249483D01*
X175462837Y-101379034D01*
X175541839Y-101526838D01*
X175541840Y-101526840D01*
X175590490Y-101687213D01*
X175606916Y-101854000D01*
X175590490Y-102020787D01*
X175541840Y-102181160D01*
X175541839Y-102181162D01*
X175462837Y-102328966D01*
X175356517Y-102458517D01*
X175226966Y-102564837D01*
X175079162Y-102643839D01*
X175079160Y-102643840D01*
X174918787Y-102692490D01*
X174793794Y-102704800D01*
X174710206Y-102704800D01*
X174585213Y-102692490D01*
X174424840Y-102643840D01*
X174424838Y-102643839D01*
X174277034Y-102564837D01*
X174147483Y-102458517D01*
X174041163Y-102328966D01*
X173962161Y-102181162D01*
X173962160Y-102181160D01*
X173913510Y-102020787D01*
X173897084Y-101854000D01*
X173913510Y-101687213D01*
X173962160Y-101526840D01*
X173962161Y-101526838D01*
X174041163Y-101379034D01*
X174147483Y-101249483D01*
X174277034Y-101143163D01*
X174424838Y-101064161D01*
X174424840Y-101064160D01*
X174585213Y-101015510D01*
X174710206Y-101003200D01*
X174793794Y-101003200D01*
X174918787Y-101015510D01*
X174918787Y-101015510D01*
G37*
G36*
X148524800Y-75880800D02*
X146623200Y-75880800D01*
X146623200Y-73979200D01*
X148524800Y-73979200D01*
X148524800Y-75880800D01*
X148524800Y-75880800D01*
G37*
G36*
X161224800Y-75880800D02*
X159323200Y-75880800D01*
X159323200Y-73979200D01*
X161224800Y-73979200D01*
X161224800Y-75880800D01*
X161224800Y-75880800D01*
G37*
G36*
X147851338Y-71475738D02*
X148024373Y-71547412D01*
X148180100Y-71651465D01*
X148312535Y-71783900D01*
X148416588Y-71939627D01*
X148488262Y-72112662D01*
X148524800Y-72296354D01*
X148524800Y-72483646D01*
X148488262Y-72667338D01*
X148416588Y-72840373D01*
X148312535Y-72996100D01*
X148180100Y-73128535D01*
X148024373Y-73232588D01*
X147851338Y-73304262D01*
X147667646Y-73340800D01*
X147480354Y-73340800D01*
X147296662Y-73304262D01*
X147123627Y-73232588D01*
X146967900Y-73128535D01*
X146835465Y-72996100D01*
X146731412Y-72840373D01*
X146659738Y-72667338D01*
X146623200Y-72483646D01*
X146623200Y-72296354D01*
X146659738Y-72112662D01*
X146731412Y-71939627D01*
X146835465Y-71783900D01*
X146967900Y-71651465D01*
X147123627Y-71547412D01*
X147296662Y-71475738D01*
X147480354Y-71439200D01*
X147667646Y-71439200D01*
X147851338Y-71475738D01*
X147851338Y-71475738D01*
G37*
G36*
X160551338Y-71475738D02*
X160724373Y-71547412D01*
X160880100Y-71651465D01*
X161012535Y-71783900D01*
X161116588Y-71939627D01*
X161188262Y-72112662D01*
X161224800Y-72296354D01*
X161224800Y-72483646D01*
X161188262Y-72667338D01*
X161116588Y-72840373D01*
X161012535Y-72996100D01*
X160880100Y-73128535D01*
X160724373Y-73232588D01*
X160551338Y-73304262D01*
X160367646Y-73340800D01*
X160180354Y-73340800D01*
X159996662Y-73304262D01*
X159823627Y-73232588D01*
X159667900Y-73128535D01*
X159535465Y-72996100D01*
X159431412Y-72840373D01*
X159359738Y-72667338D01*
X159323200Y-72483646D01*
X159323200Y-72296354D01*
X159359738Y-72112662D01*
X159431412Y-71939627D01*
X159535465Y-71783900D01*
X159667900Y-71651465D01*
X159823627Y-71547412D01*
X159996662Y-71475738D01*
X160180354Y-71439200D01*
X160367646Y-71439200D01*
X160551338Y-71475738D01*
X160551338Y-71475738D01*
G37*
M02*
