G04 #@! TF.GenerationSoftware,KiCad,Pcbnew,(5.0.2)-1*
G04 #@! TF.CreationDate,2019-01-01T16:04:13-08:00*
G04 #@! TF.ProjectId,555_Badge,3535355f-4261-4646-9765-2e6b69636164,v01*
G04 #@! TF.SameCoordinates,Original*
G04 #@! TF.FileFunction,Copper,L1,Top*
G04 #@! TF.FilePolarity,Positive*
%FSLAX46Y46*%
G04 Gerber Fmt 4.6, Leading zero omitted, Abs format (unit mm)*
G04 Created by KiCad (PCBNEW (5.0.2)-1) date 1/1/2019 4:04:13 PM*
%MOMM*%
%LPD*%
G01*
G04 APERTURE LIST*
G04 #@! TA.AperFunction,ComponentPad*
%ADD10R,2.170000X2.170000*%
G04 #@! TD*
G04 #@! TA.AperFunction,ComponentPad*
%ADD11C,2.500000*%
G04 #@! TD*
G04 #@! TA.AperFunction,ComponentPad*
%ADD12R,1.600000X1.600000*%
G04 #@! TD*
G04 #@! TA.AperFunction,ComponentPad*
%ADD13C,1.600000*%
G04 #@! TD*
G04 #@! TA.AperFunction,ComponentPad*
%ADD14R,1.800000X1.800000*%
G04 #@! TD*
G04 #@! TA.AperFunction,ComponentPad*
%ADD15C,1.800000*%
G04 #@! TD*
G04 #@! TA.AperFunction,ComponentPad*
%ADD16O,1.500000X1.000000*%
G04 #@! TD*
G04 #@! TA.AperFunction,ComponentPad*
%ADD17R,1.500000X1.000000*%
G04 #@! TD*
G04 #@! TA.AperFunction,ComponentPad*
%ADD18O,1.600000X1.600000*%
G04 #@! TD*
G04 #@! TA.AperFunction,ComponentPad*
%ADD19R,1.900000X1.900000*%
G04 #@! TD*
G04 #@! TA.AperFunction,ComponentPad*
%ADD20C,1.900000*%
G04 #@! TD*
G04 #@! TA.AperFunction,ComponentPad*
%ADD21C,1.524000*%
G04 #@! TD*
G04 #@! TA.AperFunction,ViaPad*
%ADD22C,0.762000*%
G04 #@! TD*
G04 #@! TA.AperFunction,Conductor*
%ADD23C,0.762000*%
G04 #@! TD*
G04 #@! TA.AperFunction,Conductor*
%ADD24C,0.254000*%
G04 #@! TD*
G04 APERTURE END LIST*
D10*
G04 #@! TO.P,BAT1,Neg*
G04 #@! TO.N,GND*
X139192000Y-122174000D03*
D11*
G04 #@! TO.P,BAT1,Pos*
G04 #@! TO.N,Net-(BAT1-PadPos)*
X139192000Y-102174000D03*
G04 #@! TD*
D12*
G04 #@! TO.P,C1,1*
G04 #@! TO.N,Net-(C1-Pad1)*
X167132000Y-120904000D03*
D13*
G04 #@! TO.P,C1,2*
G04 #@! TO.N,GND*
X167132000Y-122904000D03*
G04 #@! TD*
D12*
G04 #@! TO.P,C2,1*
G04 #@! TO.N,Net-(C2-Pad1)*
X175514000Y-120904000D03*
D13*
G04 #@! TO.P,C2,2*
G04 #@! TO.N,GND*
X175514000Y-123404000D03*
G04 #@! TD*
D14*
G04 #@! TO.P,D1,1*
G04 #@! TO.N,Net-(D1-Pad1)*
X147574000Y-74930000D03*
D15*
G04 #@! TO.P,D1,2*
G04 #@! TO.N,Net-(D1-Pad2)*
X147574000Y-72390000D03*
G04 #@! TD*
G04 #@! TO.P,D2,2*
G04 #@! TO.N,Net-(D2-Pad2)*
X160274000Y-72390000D03*
D14*
G04 #@! TO.P,D2,1*
G04 #@! TO.N,Net-(D1-Pad1)*
X160274000Y-74930000D03*
G04 #@! TD*
D16*
G04 #@! TO.P,Q1,2*
G04 #@! TO.N,Net-(Q1-Pad2)*
X166116000Y-114808000D03*
G04 #@! TO.P,Q1,3*
G04 #@! TO.N,Net-(D1-Pad1)*
X166116000Y-113538000D03*
D17*
G04 #@! TO.P,Q1,1*
G04 #@! TO.N,GND*
X166116000Y-116078000D03*
G04 #@! TD*
D13*
G04 #@! TO.P,R1,1*
G04 #@! TO.N,VCC*
X159512000Y-101854000D03*
D18*
G04 #@! TO.P,R1,2*
G04 #@! TO.N,Net-(R1-Pad2)*
X159512000Y-109474000D03*
G04 #@! TD*
G04 #@! TO.P,R2,2*
G04 #@! TO.N,Net-(C1-Pad1)*
X163322000Y-101854000D03*
D13*
G04 #@! TO.P,R2,1*
G04 #@! TO.N,Net-(R1-Pad2)*
X163322000Y-109474000D03*
G04 #@! TD*
G04 #@! TO.P,R3,1*
G04 #@! TO.N,Net-(C2-Pad1)*
X174752000Y-109474000D03*
D18*
G04 #@! TO.P,R3,2*
G04 #@! TO.N,Net-(R3-Pad2)*
X174752000Y-101854000D03*
G04 #@! TD*
D13*
G04 #@! TO.P,R4,1*
G04 #@! TO.N,Net-(C2-Pad1)*
X178562000Y-101854000D03*
D18*
G04 #@! TO.P,R4,2*
G04 #@! TO.N,GND*
X178562000Y-109474000D03*
G04 #@! TD*
G04 #@! TO.P,R5,2*
G04 #@! TO.N,Net-(C2-Pad1)*
X178816000Y-114808000D03*
D13*
G04 #@! TO.P,R5,1*
G04 #@! TO.N,Net-(Q1-Pad2)*
X171196000Y-114808000D03*
G04 #@! TD*
G04 #@! TO.P,R6,1*
G04 #@! TO.N,VCC*
X167132000Y-109474000D03*
D18*
G04 #@! TO.P,R6,2*
G04 #@! TO.N,Net-(D1-Pad2)*
X167132000Y-101854000D03*
G04 #@! TD*
G04 #@! TO.P,R7,2*
G04 #@! TO.N,Net-(D2-Pad2)*
X170942000Y-101854000D03*
D13*
G04 #@! TO.P,R7,1*
G04 #@! TO.N,VCC*
X170942000Y-109474000D03*
G04 #@! TD*
D19*
G04 #@! TO.P,S1,1*
G04 #@! TO.N,Net-(S1-Pad1)*
X154432000Y-109474000D03*
D20*
G04 #@! TO.P,S1,2*
G04 #@! TO.N,VCC*
X154432000Y-106974000D03*
G04 #@! TO.P,S1,3*
G04 #@! TO.N,Net-(BAT1-PadPos)*
X154432000Y-104474000D03*
G04 #@! TD*
D21*
G04 #@! TO.P,U1,8*
G04 #@! TO.N,VCC*
X153162000Y-117094000D03*
G04 #@! TO.P,U1,7*
G04 #@! TO.N,Net-(R1-Pad2)*
X155702000Y-117094000D03*
G04 #@! TO.P,U1,6*
G04 #@! TO.N,Net-(C1-Pad1)*
X158242000Y-117094000D03*
G04 #@! TO.P,U1,5*
G04 #@! TO.N,Net-(U1-Pad5)*
X160782000Y-117094000D03*
G04 #@! TO.P,U1,4*
G04 #@! TO.N,VCC*
X160782000Y-124714000D03*
G04 #@! TO.P,U1,3*
G04 #@! TO.N,Net-(R3-Pad2)*
X158242000Y-124714000D03*
G04 #@! TO.P,U1,2*
G04 #@! TO.N,Net-(C1-Pad1)*
X155702000Y-124714000D03*
G04 #@! TO.P,U1,1*
G04 #@! TO.N,GND*
X153162000Y-124714000D03*
G04 #@! TD*
D22*
G04 #@! TO.N,Net-(D1-Pad1)*
X169037000Y-110617000D03*
G04 #@! TD*
D23*
G04 #@! TO.N,Net-(BAT1-PadPos)*
X152132000Y-102174000D02*
X154432000Y-104474000D01*
X139192000Y-102174000D02*
X152132000Y-102174000D01*
D24*
G04 #@! TO.N,Net-(C1-Pad1)*
X158242000Y-117094000D02*
X158242000Y-119126000D01*
X160020000Y-120904000D02*
X167132000Y-120904000D01*
X158242000Y-119126000D02*
X160020000Y-120904000D01*
G04 #@! TO.N,Net-(C2-Pad1)*
X174752000Y-110744000D02*
X174752000Y-109474000D01*
X178816000Y-114808000D02*
X174752000Y-110744000D01*
X178562000Y-104140000D02*
X178562000Y-101854000D01*
X174752000Y-109474000D02*
X174752000Y-107950000D01*
X174752000Y-107950000D02*
X178562000Y-104140000D01*
X178816000Y-116332000D02*
X178816000Y-114808000D01*
X175514000Y-120904000D02*
X175514000Y-119634000D01*
X175514000Y-119634000D02*
X178816000Y-116332000D01*
G04 #@! TO.N,Net-(D1-Pad1)*
X168275000Y-113538000D02*
X166116000Y-113538000D01*
X169037000Y-112776000D02*
X168275000Y-113538000D01*
X169037000Y-112776000D02*
X169037000Y-110617000D01*
X169037000Y-110617000D02*
X169037000Y-110617000D01*
G04 #@! TO.N,Net-(Q1-Pad2)*
X166116000Y-114808000D02*
X171196000Y-114808000D01*
D23*
G04 #@! TO.N,VCC*
X168442000Y-106974000D02*
X168482000Y-106934000D01*
X167132000Y-109474000D02*
X167132000Y-106974000D01*
X167132000Y-106974000D02*
X168442000Y-106974000D01*
X170942000Y-109474000D02*
X170942000Y-107696000D01*
X170220000Y-106974000D02*
X168442000Y-106974000D01*
X170942000Y-107696000D02*
X170220000Y-106974000D01*
X159512000Y-101854000D02*
X159512000Y-106974000D01*
X154432000Y-106974000D02*
X159512000Y-106974000D01*
X159512000Y-106974000D02*
X167132000Y-106974000D01*
D24*
X153088498Y-106974000D02*
X151638000Y-108424498D01*
X154432000Y-106974000D02*
X153088498Y-106974000D01*
X151638000Y-115570000D02*
X153162000Y-117094000D01*
X151638000Y-108424498D02*
X151638000Y-115570000D01*
X153162000Y-117094000D02*
X160782000Y-124714000D01*
G04 #@! TO.N,Net-(R1-Pad2)*
X155702000Y-117094000D02*
X155702000Y-115316000D01*
X159512000Y-111506000D02*
X159512000Y-109474000D01*
X155702000Y-115316000D02*
X159512000Y-111506000D01*
X159512000Y-109474000D02*
X163322000Y-109474000D01*
G04 #@! TD*
G04 #@! TO.N,GND*
G36*
X180454301Y-126606300D02*
X127393700Y-126606300D01*
X127393700Y-125694213D01*
X152361392Y-125694213D01*
X152430857Y-125936397D01*
X152954302Y-126123144D01*
X153509368Y-126095362D01*
X153893143Y-125936397D01*
X153962608Y-125694213D01*
X153162000Y-124893605D01*
X152361392Y-125694213D01*
X127393700Y-125694213D01*
X127393700Y-124506302D01*
X151752856Y-124506302D01*
X151780638Y-125061368D01*
X151939603Y-125445143D01*
X152181787Y-125514608D01*
X152982395Y-124714000D01*
X153341605Y-124714000D01*
X154142213Y-125514608D01*
X154384397Y-125445143D01*
X154561756Y-124948011D01*
X154733011Y-125361458D01*
X155054542Y-125682989D01*
X155474643Y-125857000D01*
X155929357Y-125857000D01*
X156349458Y-125682989D01*
X156670989Y-125361458D01*
X156845000Y-124941357D01*
X156845000Y-124486643D01*
X157099000Y-124486643D01*
X157099000Y-124941357D01*
X157273011Y-125361458D01*
X157594542Y-125682989D01*
X158014643Y-125857000D01*
X158469357Y-125857000D01*
X158889458Y-125682989D01*
X159210989Y-125361458D01*
X159385000Y-124941357D01*
X159385000Y-124486643D01*
X159210989Y-124066542D01*
X158889458Y-123745011D01*
X158469357Y-123571000D01*
X158014643Y-123571000D01*
X157594542Y-123745011D01*
X157273011Y-124066542D01*
X157099000Y-124486643D01*
X156845000Y-124486643D01*
X156670989Y-124066542D01*
X156349458Y-123745011D01*
X155929357Y-123571000D01*
X155474643Y-123571000D01*
X155054542Y-123745011D01*
X154733011Y-124066542D01*
X154559000Y-124486643D01*
X154559000Y-124679069D01*
X154543362Y-124366632D01*
X154384397Y-123982857D01*
X154142213Y-123913392D01*
X153341605Y-124714000D01*
X152982395Y-124714000D01*
X152181787Y-123913392D01*
X151939603Y-123982857D01*
X151752856Y-124506302D01*
X127393700Y-124506302D01*
X127393700Y-122459750D01*
X137472000Y-122459750D01*
X137472000Y-123385309D01*
X137568673Y-123618698D01*
X137747301Y-123797327D01*
X137980690Y-123894000D01*
X138906250Y-123894000D01*
X139065000Y-123735250D01*
X139065000Y-122301000D01*
X139319000Y-122301000D01*
X139319000Y-123735250D01*
X139477750Y-123894000D01*
X140403310Y-123894000D01*
X140636699Y-123797327D01*
X140700238Y-123733787D01*
X152361392Y-123733787D01*
X153162000Y-124534395D01*
X153962608Y-123733787D01*
X153893143Y-123491603D01*
X153369698Y-123304856D01*
X152814632Y-123332638D01*
X152430857Y-123491603D01*
X152361392Y-123733787D01*
X140700238Y-123733787D01*
X140815327Y-123618698D01*
X140912000Y-123385309D01*
X140912000Y-122459750D01*
X140753250Y-122301000D01*
X139319000Y-122301000D01*
X139065000Y-122301000D01*
X137630750Y-122301000D01*
X137472000Y-122459750D01*
X127393700Y-122459750D01*
X127393700Y-120962691D01*
X137472000Y-120962691D01*
X137472000Y-121888250D01*
X137630750Y-122047000D01*
X139065000Y-122047000D01*
X139065000Y-120612750D01*
X139319000Y-120612750D01*
X139319000Y-122047000D01*
X140753250Y-122047000D01*
X140912000Y-121888250D01*
X140912000Y-120962691D01*
X140815327Y-120729302D01*
X140636699Y-120550673D01*
X140403310Y-120454000D01*
X139477750Y-120454000D01*
X139319000Y-120612750D01*
X139065000Y-120612750D01*
X138906250Y-120454000D01*
X137980690Y-120454000D01*
X137747301Y-120550673D01*
X137568673Y-120729302D01*
X137472000Y-120962691D01*
X127393700Y-120962691D01*
X127393700Y-101849574D01*
X137561000Y-101849574D01*
X137561000Y-102498426D01*
X137809305Y-103097887D01*
X138268113Y-103556695D01*
X138867574Y-103805000D01*
X139516426Y-103805000D01*
X140115887Y-103556695D01*
X140574695Y-103097887D01*
X140641751Y-102936000D01*
X151816370Y-102936000D01*
X153101000Y-104220631D01*
X153101000Y-104738752D01*
X153303633Y-105227951D01*
X153678049Y-105602367D01*
X153971697Y-105724000D01*
X153678049Y-105845633D01*
X153303633Y-106220049D01*
X153201757Y-106466000D01*
X153138526Y-106466000D01*
X153088498Y-106456049D01*
X153038470Y-106466000D01*
X153038466Y-106466000D01*
X152890286Y-106495475D01*
X152764665Y-106579412D01*
X152764663Y-106579414D01*
X152722251Y-106607753D01*
X152693912Y-106650165D01*
X151314168Y-108029910D01*
X151271753Y-108058251D01*
X151243413Y-108100665D01*
X151243412Y-108100666D01*
X151220113Y-108135536D01*
X151159475Y-108226287D01*
X151130000Y-108374467D01*
X151130000Y-108374470D01*
X151120049Y-108424498D01*
X151130000Y-108474526D01*
X151130001Y-115519967D01*
X151120049Y-115570000D01*
X151159475Y-115768211D01*
X151243412Y-115893832D01*
X151243415Y-115893835D01*
X151271754Y-115936247D01*
X151314166Y-115964586D01*
X152076765Y-116727185D01*
X152019000Y-116866643D01*
X152019000Y-117321357D01*
X152193011Y-117741458D01*
X152514542Y-118062989D01*
X152934643Y-118237000D01*
X153389357Y-118237000D01*
X153528815Y-118179235D01*
X159696765Y-124347185D01*
X159639000Y-124486643D01*
X159639000Y-124941357D01*
X159813011Y-125361458D01*
X160134542Y-125682989D01*
X160554643Y-125857000D01*
X161009357Y-125857000D01*
X161429458Y-125682989D01*
X161750989Y-125361458D01*
X161925000Y-124941357D01*
X161925000Y-124486643D01*
X161893977Y-124411745D01*
X174685861Y-124411745D01*
X174759995Y-124657864D01*
X175297223Y-124850965D01*
X175867454Y-124823778D01*
X176268005Y-124657864D01*
X176342139Y-124411745D01*
X175514000Y-123583605D01*
X174685861Y-124411745D01*
X161893977Y-124411745D01*
X161750989Y-124066542D01*
X161596192Y-123911745D01*
X166303861Y-123911745D01*
X166377995Y-124157864D01*
X166915223Y-124350965D01*
X167485454Y-124323778D01*
X167886005Y-124157864D01*
X167960139Y-123911745D01*
X167132000Y-123083605D01*
X166303861Y-123911745D01*
X161596192Y-123911745D01*
X161429458Y-123745011D01*
X161009357Y-123571000D01*
X160554643Y-123571000D01*
X160415185Y-123628765D01*
X154247235Y-117460815D01*
X154305000Y-117321357D01*
X154305000Y-116866643D01*
X154559000Y-116866643D01*
X154559000Y-117321357D01*
X154733011Y-117741458D01*
X155054542Y-118062989D01*
X155474643Y-118237000D01*
X155929357Y-118237000D01*
X156349458Y-118062989D01*
X156670989Y-117741458D01*
X156845000Y-117321357D01*
X156845000Y-116866643D01*
X157099000Y-116866643D01*
X157099000Y-117321357D01*
X157273011Y-117741458D01*
X157594542Y-118062989D01*
X157734001Y-118120754D01*
X157734001Y-119075967D01*
X157724049Y-119126000D01*
X157763475Y-119324211D01*
X157847412Y-119449832D01*
X157847415Y-119449835D01*
X157875754Y-119492247D01*
X157918166Y-119520586D01*
X159625414Y-121227835D01*
X159653753Y-121270247D01*
X159696165Y-121298586D01*
X159696167Y-121298588D01*
X159821788Y-121382525D01*
X159969968Y-121412000D01*
X159969972Y-121412000D01*
X160020000Y-121421951D01*
X160070028Y-121412000D01*
X165943536Y-121412000D01*
X165943536Y-121704000D01*
X165973106Y-121852659D01*
X166031024Y-121939340D01*
X166009378Y-121960986D01*
X166124253Y-122075861D01*
X165878136Y-122149995D01*
X165685035Y-122687223D01*
X165712222Y-123257454D01*
X165878136Y-123658005D01*
X166124255Y-123732139D01*
X166952395Y-122904000D01*
X166938252Y-122889858D01*
X167117858Y-122710252D01*
X167132000Y-122724395D01*
X167146142Y-122710252D01*
X167325748Y-122889858D01*
X167311605Y-122904000D01*
X168139745Y-123732139D01*
X168385864Y-123658005D01*
X168555081Y-123187223D01*
X174067035Y-123187223D01*
X174094222Y-123757454D01*
X174260136Y-124158005D01*
X174506255Y-124232139D01*
X175334395Y-123404000D01*
X175693605Y-123404000D01*
X176521745Y-124232139D01*
X176767864Y-124158005D01*
X176960965Y-123620777D01*
X176933778Y-123050546D01*
X176767864Y-122649995D01*
X176521745Y-122575861D01*
X175693605Y-123404000D01*
X175334395Y-123404000D01*
X174506255Y-122575861D01*
X174260136Y-122649995D01*
X174067035Y-123187223D01*
X168555081Y-123187223D01*
X168578965Y-123120777D01*
X168551778Y-122550546D01*
X168385864Y-122149995D01*
X168139747Y-122075861D01*
X168254622Y-121960986D01*
X168232976Y-121939340D01*
X168290894Y-121852659D01*
X168320464Y-121704000D01*
X168320464Y-120104000D01*
X168290894Y-119955341D01*
X168206686Y-119829314D01*
X168080659Y-119745106D01*
X167932000Y-119715536D01*
X166332000Y-119715536D01*
X166183341Y-119745106D01*
X166057314Y-119829314D01*
X165973106Y-119955341D01*
X165943536Y-120104000D01*
X165943536Y-120396000D01*
X160230421Y-120396000D01*
X158750000Y-118915580D01*
X158750000Y-118120754D01*
X158889458Y-118062989D01*
X159210989Y-117741458D01*
X159385000Y-117321357D01*
X159385000Y-116866643D01*
X159639000Y-116866643D01*
X159639000Y-117321357D01*
X159813011Y-117741458D01*
X160134542Y-118062989D01*
X160554643Y-118237000D01*
X161009357Y-118237000D01*
X161429458Y-118062989D01*
X161750989Y-117741458D01*
X161925000Y-117321357D01*
X161925000Y-116866643D01*
X161750989Y-116446542D01*
X161668197Y-116363750D01*
X164731000Y-116363750D01*
X164731000Y-116704309D01*
X164827673Y-116937698D01*
X165006301Y-117116327D01*
X165239690Y-117213000D01*
X165830250Y-117213000D01*
X165989000Y-117054250D01*
X165989000Y-116205000D01*
X166243000Y-116205000D01*
X166243000Y-117054250D01*
X166401750Y-117213000D01*
X166992310Y-117213000D01*
X167225699Y-117116327D01*
X167404327Y-116937698D01*
X167501000Y-116704309D01*
X167501000Y-116363750D01*
X167342250Y-116205000D01*
X166243000Y-116205000D01*
X165989000Y-116205000D01*
X164889750Y-116205000D01*
X164731000Y-116363750D01*
X161668197Y-116363750D01*
X161429458Y-116125011D01*
X161009357Y-115951000D01*
X160554643Y-115951000D01*
X160134542Y-116125011D01*
X159813011Y-116446542D01*
X159639000Y-116866643D01*
X159385000Y-116866643D01*
X159210989Y-116446542D01*
X158889458Y-116125011D01*
X158469357Y-115951000D01*
X158014643Y-115951000D01*
X157594542Y-116125011D01*
X157273011Y-116446542D01*
X157099000Y-116866643D01*
X156845000Y-116866643D01*
X156670989Y-116446542D01*
X156349458Y-116125011D01*
X156210000Y-116067246D01*
X156210000Y-115526420D01*
X156284729Y-115451691D01*
X164731000Y-115451691D01*
X164731000Y-115792250D01*
X164889750Y-115951000D01*
X165989000Y-115951000D01*
X165989000Y-115931000D01*
X166243000Y-115931000D01*
X166243000Y-115951000D01*
X167342250Y-115951000D01*
X167501000Y-115792250D01*
X167501000Y-115451691D01*
X167444795Y-115316000D01*
X170128116Y-115316000D01*
X170194797Y-115476983D01*
X170527017Y-115809203D01*
X170961085Y-115989000D01*
X171430915Y-115989000D01*
X171864983Y-115809203D01*
X172197203Y-115476983D01*
X172377000Y-115042915D01*
X172377000Y-114573085D01*
X172197203Y-114139017D01*
X171864983Y-113806797D01*
X171430915Y-113627000D01*
X170961085Y-113627000D01*
X170527017Y-113806797D01*
X170194797Y-114139017D01*
X170128116Y-114300000D01*
X167086134Y-114300000D01*
X167001275Y-114173000D01*
X167086134Y-114046000D01*
X168224972Y-114046000D01*
X168275000Y-114055951D01*
X168325028Y-114046000D01*
X168325032Y-114046000D01*
X168473212Y-114016525D01*
X168641247Y-113904247D01*
X168669588Y-113861832D01*
X169360835Y-113170585D01*
X169403247Y-113142247D01*
X169431586Y-113099835D01*
X169431588Y-113099833D01*
X169515525Y-112974212D01*
X169515525Y-112974211D01*
X169545000Y-112826032D01*
X169545000Y-112826028D01*
X169554951Y-112776000D01*
X169545000Y-112725972D01*
X169545000Y-111186630D01*
X169682992Y-111048638D01*
X169799000Y-110768571D01*
X169799000Y-110465429D01*
X169682992Y-110185362D01*
X169468638Y-109971008D01*
X169188571Y-109855000D01*
X168885429Y-109855000D01*
X168605362Y-109971008D01*
X168391008Y-110185362D01*
X168275000Y-110465429D01*
X168275000Y-110768571D01*
X168391008Y-111048638D01*
X168529001Y-111186631D01*
X168529000Y-112565579D01*
X168064580Y-113030000D01*
X167086134Y-113030000D01*
X167001165Y-112902835D01*
X166709749Y-112708117D01*
X166452767Y-112657000D01*
X165779233Y-112657000D01*
X165522251Y-112708117D01*
X165230835Y-112902835D01*
X165036117Y-113194251D01*
X164967741Y-113538000D01*
X165036117Y-113881749D01*
X165230725Y-114173000D01*
X165036117Y-114464251D01*
X164967741Y-114808000D01*
X165013251Y-115036794D01*
X165006301Y-115039673D01*
X164827673Y-115218302D01*
X164731000Y-115451691D01*
X156284729Y-115451691D01*
X159835836Y-111900585D01*
X159878247Y-111872247D01*
X159906586Y-111829835D01*
X159906588Y-111829833D01*
X159950098Y-111764714D01*
X159990525Y-111704212D01*
X160020000Y-111556032D01*
X160020000Y-111556028D01*
X160029951Y-111506000D01*
X160020000Y-111455972D01*
X160020000Y-110554942D01*
X160363453Y-110325453D01*
X160592942Y-109982000D01*
X162254116Y-109982000D01*
X162320797Y-110142983D01*
X162653017Y-110475203D01*
X163087085Y-110655000D01*
X163556915Y-110655000D01*
X163990983Y-110475203D01*
X164323203Y-110142983D01*
X164503000Y-109708915D01*
X164503000Y-109239085D01*
X164323203Y-108805017D01*
X163990983Y-108472797D01*
X163556915Y-108293000D01*
X163087085Y-108293000D01*
X162653017Y-108472797D01*
X162320797Y-108805017D01*
X162254116Y-108966000D01*
X160592942Y-108966000D01*
X160363453Y-108622547D01*
X159972803Y-108361522D01*
X159628318Y-108293000D01*
X159395682Y-108293000D01*
X159051197Y-108361522D01*
X158660547Y-108622547D01*
X158399522Y-109013197D01*
X158307863Y-109474000D01*
X158399522Y-109934803D01*
X158660547Y-110325453D01*
X159004000Y-110554942D01*
X159004000Y-111295579D01*
X155378166Y-114921414D01*
X155335754Y-114949753D01*
X155307415Y-114992165D01*
X155307412Y-114992168D01*
X155223475Y-115117789D01*
X155184049Y-115316000D01*
X155194001Y-115366033D01*
X155194001Y-116067246D01*
X155054542Y-116125011D01*
X154733011Y-116446542D01*
X154559000Y-116866643D01*
X154305000Y-116866643D01*
X154130989Y-116446542D01*
X153809458Y-116125011D01*
X153389357Y-115951000D01*
X152934643Y-115951000D01*
X152795185Y-116008765D01*
X152146000Y-115359580D01*
X152146000Y-108634918D01*
X153230215Y-107550704D01*
X153303633Y-107727951D01*
X153678049Y-108102367D01*
X153758126Y-108135536D01*
X153482000Y-108135536D01*
X153333341Y-108165106D01*
X153207314Y-108249314D01*
X153123106Y-108375341D01*
X153093536Y-108524000D01*
X153093536Y-110424000D01*
X153123106Y-110572659D01*
X153207314Y-110698686D01*
X153333341Y-110782894D01*
X153482000Y-110812464D01*
X155382000Y-110812464D01*
X155530659Y-110782894D01*
X155656686Y-110698686D01*
X155740894Y-110572659D01*
X155770464Y-110424000D01*
X155770464Y-108524000D01*
X155740894Y-108375341D01*
X155656686Y-108249314D01*
X155530659Y-108165106D01*
X155382000Y-108135536D01*
X155105874Y-108135536D01*
X155185951Y-108102367D01*
X155552318Y-107736000D01*
X159436952Y-107736000D01*
X159512000Y-107750928D01*
X159587048Y-107736000D01*
X166370001Y-107736000D01*
X166370000Y-108565814D01*
X166130797Y-108805017D01*
X165951000Y-109239085D01*
X165951000Y-109708915D01*
X166130797Y-110142983D01*
X166463017Y-110475203D01*
X166897085Y-110655000D01*
X167366915Y-110655000D01*
X167800983Y-110475203D01*
X168133203Y-110142983D01*
X168313000Y-109708915D01*
X168313000Y-109239085D01*
X168133203Y-108805017D01*
X167894000Y-108565814D01*
X167894000Y-107736000D01*
X168366957Y-107736000D01*
X168442000Y-107750927D01*
X168517043Y-107736000D01*
X169904370Y-107736000D01*
X170180001Y-108011631D01*
X170180001Y-108565813D01*
X169940797Y-108805017D01*
X169761000Y-109239085D01*
X169761000Y-109708915D01*
X169940797Y-110142983D01*
X170273017Y-110475203D01*
X170707085Y-110655000D01*
X171176915Y-110655000D01*
X171610983Y-110475203D01*
X171943203Y-110142983D01*
X172123000Y-109708915D01*
X172123000Y-109239085D01*
X173571000Y-109239085D01*
X173571000Y-109708915D01*
X173750797Y-110142983D01*
X174083017Y-110475203D01*
X174244000Y-110541884D01*
X174244000Y-110693972D01*
X174234049Y-110744000D01*
X174244000Y-110794028D01*
X174244000Y-110794031D01*
X174258297Y-110865904D01*
X174273475Y-110942211D01*
X174330447Y-111027475D01*
X174385753Y-111110247D01*
X174428168Y-111138588D01*
X177692448Y-114402869D01*
X177611863Y-114808000D01*
X177703522Y-115268803D01*
X177964547Y-115659453D01*
X178308000Y-115888942D01*
X178308000Y-116121579D01*
X175190166Y-119239414D01*
X175147754Y-119267753D01*
X175119415Y-119310165D01*
X175119412Y-119310168D01*
X175035475Y-119435789D01*
X174996049Y-119634000D01*
X175006001Y-119684033D01*
X175006001Y-119715536D01*
X174714000Y-119715536D01*
X174565341Y-119745106D01*
X174439314Y-119829314D01*
X174355106Y-119955341D01*
X174325536Y-120104000D01*
X174325536Y-121704000D01*
X174355106Y-121852659D01*
X174439314Y-121978686D01*
X174565341Y-122062894D01*
X174714000Y-122092464D01*
X174899227Y-122092464D01*
X174759995Y-122150136D01*
X174685861Y-122396255D01*
X175514000Y-123224395D01*
X176342139Y-122396255D01*
X176268005Y-122150136D01*
X176107555Y-122092464D01*
X176314000Y-122092464D01*
X176462659Y-122062894D01*
X176588686Y-121978686D01*
X176672894Y-121852659D01*
X176702464Y-121704000D01*
X176702464Y-120104000D01*
X176672894Y-119955341D01*
X176588686Y-119829314D01*
X176462659Y-119745106D01*
X176314000Y-119715536D01*
X176150884Y-119715536D01*
X179139836Y-116726585D01*
X179182247Y-116698247D01*
X179210586Y-116655835D01*
X179210588Y-116655833D01*
X179294525Y-116530212D01*
X179311168Y-116446542D01*
X179324000Y-116382032D01*
X179324000Y-116382029D01*
X179333951Y-116332001D01*
X179324000Y-116281973D01*
X179324000Y-115888942D01*
X179667453Y-115659453D01*
X179928478Y-115268803D01*
X180020137Y-114808000D01*
X179928478Y-114347197D01*
X179667453Y-113956547D01*
X179276803Y-113695522D01*
X178932318Y-113627000D01*
X178699682Y-113627000D01*
X178410869Y-113684448D01*
X175265872Y-110539452D01*
X175420983Y-110475203D01*
X175753203Y-110142983D01*
X175885727Y-109823041D01*
X177170086Y-109823041D01*
X177409611Y-110329134D01*
X177824577Y-110705041D01*
X178212961Y-110865904D01*
X178435000Y-110743915D01*
X178435000Y-109601000D01*
X178689000Y-109601000D01*
X178689000Y-110743915D01*
X178911039Y-110865904D01*
X179299423Y-110705041D01*
X179714389Y-110329134D01*
X179953914Y-109823041D01*
X179832629Y-109601000D01*
X178689000Y-109601000D01*
X178435000Y-109601000D01*
X177291371Y-109601000D01*
X177170086Y-109823041D01*
X175885727Y-109823041D01*
X175933000Y-109708915D01*
X175933000Y-109239085D01*
X175885728Y-109124959D01*
X177170086Y-109124959D01*
X177291371Y-109347000D01*
X178435000Y-109347000D01*
X178435000Y-108204085D01*
X178689000Y-108204085D01*
X178689000Y-109347000D01*
X179832629Y-109347000D01*
X179953914Y-109124959D01*
X179714389Y-108618866D01*
X179299423Y-108242959D01*
X178911039Y-108082096D01*
X178689000Y-108204085D01*
X178435000Y-108204085D01*
X178212961Y-108082096D01*
X177824577Y-108242959D01*
X177409611Y-108618866D01*
X177170086Y-109124959D01*
X175885728Y-109124959D01*
X175753203Y-108805017D01*
X175420983Y-108472797D01*
X175260000Y-108406116D01*
X175260000Y-108160420D01*
X178885836Y-104534585D01*
X178928247Y-104506247D01*
X178956586Y-104463835D01*
X178956588Y-104463833D01*
X179000098Y-104398714D01*
X179040525Y-104338212D01*
X179070000Y-104190032D01*
X179070000Y-104190028D01*
X179079951Y-104140000D01*
X179070000Y-104089972D01*
X179070000Y-102921884D01*
X179230983Y-102855203D01*
X179563203Y-102522983D01*
X179743000Y-102088915D01*
X179743000Y-101619085D01*
X179563203Y-101185017D01*
X179230983Y-100852797D01*
X178796915Y-100673000D01*
X178327085Y-100673000D01*
X177893017Y-100852797D01*
X177560797Y-101185017D01*
X177381000Y-101619085D01*
X177381000Y-102088915D01*
X177560797Y-102522983D01*
X177893017Y-102855203D01*
X178054001Y-102921885D01*
X178054000Y-103929579D01*
X174428166Y-107555414D01*
X174385754Y-107583753D01*
X174357415Y-107626165D01*
X174357412Y-107626168D01*
X174273475Y-107751789D01*
X174234049Y-107950000D01*
X174244001Y-108000033D01*
X174244001Y-108406115D01*
X174083017Y-108472797D01*
X173750797Y-108805017D01*
X173571000Y-109239085D01*
X172123000Y-109239085D01*
X171943203Y-108805017D01*
X171704000Y-108565814D01*
X171704000Y-107771042D01*
X171718927Y-107695999D01*
X171704000Y-107620956D01*
X171704000Y-107620952D01*
X171659788Y-107398683D01*
X171620743Y-107340247D01*
X171533882Y-107210251D01*
X171491371Y-107146629D01*
X171427749Y-107104118D01*
X170811883Y-106488253D01*
X170769371Y-106424629D01*
X170517317Y-106256212D01*
X170295048Y-106212000D01*
X170295043Y-106212000D01*
X170220000Y-106197073D01*
X170144957Y-106212000D01*
X168758138Y-106212000D01*
X168482000Y-106157072D01*
X168205863Y-106212000D01*
X167207048Y-106212000D01*
X167132000Y-106197072D01*
X167056952Y-106212000D01*
X160274000Y-106212000D01*
X160274000Y-102762186D01*
X160513203Y-102522983D01*
X160693000Y-102088915D01*
X160693000Y-101854000D01*
X162117863Y-101854000D01*
X162209522Y-102314803D01*
X162470547Y-102705453D01*
X162861197Y-102966478D01*
X163205682Y-103035000D01*
X163438318Y-103035000D01*
X163782803Y-102966478D01*
X164173453Y-102705453D01*
X164434478Y-102314803D01*
X164526137Y-101854000D01*
X165927863Y-101854000D01*
X166019522Y-102314803D01*
X166280547Y-102705453D01*
X166671197Y-102966478D01*
X167015682Y-103035000D01*
X167248318Y-103035000D01*
X167592803Y-102966478D01*
X167983453Y-102705453D01*
X168244478Y-102314803D01*
X168336137Y-101854000D01*
X169737863Y-101854000D01*
X169829522Y-102314803D01*
X170090547Y-102705453D01*
X170481197Y-102966478D01*
X170825682Y-103035000D01*
X171058318Y-103035000D01*
X171402803Y-102966478D01*
X171793453Y-102705453D01*
X172054478Y-102314803D01*
X172146137Y-101854000D01*
X173547863Y-101854000D01*
X173639522Y-102314803D01*
X173900547Y-102705453D01*
X174291197Y-102966478D01*
X174635682Y-103035000D01*
X174868318Y-103035000D01*
X175212803Y-102966478D01*
X175603453Y-102705453D01*
X175864478Y-102314803D01*
X175956137Y-101854000D01*
X175864478Y-101393197D01*
X175603453Y-101002547D01*
X175212803Y-100741522D01*
X174868318Y-100673000D01*
X174635682Y-100673000D01*
X174291197Y-100741522D01*
X173900547Y-101002547D01*
X173639522Y-101393197D01*
X173547863Y-101854000D01*
X172146137Y-101854000D01*
X172054478Y-101393197D01*
X171793453Y-101002547D01*
X171402803Y-100741522D01*
X171058318Y-100673000D01*
X170825682Y-100673000D01*
X170481197Y-100741522D01*
X170090547Y-101002547D01*
X169829522Y-101393197D01*
X169737863Y-101854000D01*
X168336137Y-101854000D01*
X168244478Y-101393197D01*
X167983453Y-101002547D01*
X167592803Y-100741522D01*
X167248318Y-100673000D01*
X167015682Y-100673000D01*
X166671197Y-100741522D01*
X166280547Y-101002547D01*
X166019522Y-101393197D01*
X165927863Y-101854000D01*
X164526137Y-101854000D01*
X164434478Y-101393197D01*
X164173453Y-101002547D01*
X163782803Y-100741522D01*
X163438318Y-100673000D01*
X163205682Y-100673000D01*
X162861197Y-100741522D01*
X162470547Y-101002547D01*
X162209522Y-101393197D01*
X162117863Y-101854000D01*
X160693000Y-101854000D01*
X160693000Y-101619085D01*
X160513203Y-101185017D01*
X160180983Y-100852797D01*
X159746915Y-100673000D01*
X159277085Y-100673000D01*
X158843017Y-100852797D01*
X158510797Y-101185017D01*
X158331000Y-101619085D01*
X158331000Y-102088915D01*
X158510797Y-102522983D01*
X158750000Y-102762186D01*
X158750001Y-106212000D01*
X155552318Y-106212000D01*
X155185951Y-105845633D01*
X154892303Y-105724000D01*
X155185951Y-105602367D01*
X155560367Y-105227951D01*
X155763000Y-104738752D01*
X155763000Y-104209248D01*
X155560367Y-103720049D01*
X155185951Y-103345633D01*
X154696752Y-103143000D01*
X154178631Y-103143000D01*
X152723883Y-101688253D01*
X152681371Y-101624629D01*
X152429317Y-101456212D01*
X152207048Y-101412000D01*
X152207043Y-101412000D01*
X152132000Y-101397073D01*
X152056957Y-101412000D01*
X140641751Y-101412000D01*
X140574695Y-101250113D01*
X140115887Y-100791305D01*
X139516426Y-100543000D01*
X138867574Y-100543000D01*
X138268113Y-100791305D01*
X137809305Y-101250113D01*
X137561000Y-101849574D01*
X127393700Y-101849574D01*
X127393700Y-74030000D01*
X146285536Y-74030000D01*
X146285536Y-75830000D01*
X146315106Y-75978659D01*
X146399314Y-76104686D01*
X146525341Y-76188894D01*
X146674000Y-76218464D01*
X148474000Y-76218464D01*
X148622659Y-76188894D01*
X148748686Y-76104686D01*
X148832894Y-75978659D01*
X148862464Y-75830000D01*
X148862464Y-74030000D01*
X158985536Y-74030000D01*
X158985536Y-75830000D01*
X159015106Y-75978659D01*
X159099314Y-76104686D01*
X159225341Y-76188894D01*
X159374000Y-76218464D01*
X161174000Y-76218464D01*
X161322659Y-76188894D01*
X161448686Y-76104686D01*
X161532894Y-75978659D01*
X161562464Y-75830000D01*
X161562464Y-74030000D01*
X161532894Y-73881341D01*
X161448686Y-73755314D01*
X161322659Y-73671106D01*
X161174000Y-73641536D01*
X160599939Y-73641536D01*
X160999628Y-73475979D01*
X161359979Y-73115628D01*
X161555000Y-72644807D01*
X161555000Y-72135193D01*
X161359979Y-71664372D01*
X160999628Y-71304021D01*
X160528807Y-71109000D01*
X160019193Y-71109000D01*
X159548372Y-71304021D01*
X159188021Y-71664372D01*
X158993000Y-72135193D01*
X158993000Y-72644807D01*
X159188021Y-73115628D01*
X159548372Y-73475979D01*
X159948061Y-73641536D01*
X159374000Y-73641536D01*
X159225341Y-73671106D01*
X159099314Y-73755314D01*
X159015106Y-73881341D01*
X158985536Y-74030000D01*
X148862464Y-74030000D01*
X148832894Y-73881341D01*
X148748686Y-73755314D01*
X148622659Y-73671106D01*
X148474000Y-73641536D01*
X147899939Y-73641536D01*
X148299628Y-73475979D01*
X148659979Y-73115628D01*
X148855000Y-72644807D01*
X148855000Y-72135193D01*
X148659979Y-71664372D01*
X148299628Y-71304021D01*
X147828807Y-71109000D01*
X147319193Y-71109000D01*
X146848372Y-71304021D01*
X146488021Y-71664372D01*
X146293000Y-72135193D01*
X146293000Y-72644807D01*
X146488021Y-73115628D01*
X146848372Y-73475979D01*
X147248061Y-73641536D01*
X146674000Y-73641536D01*
X146525341Y-73671106D01*
X146399314Y-73755314D01*
X146315106Y-73881341D01*
X146285536Y-74030000D01*
X127393700Y-74030000D01*
X127393700Y-45586057D01*
X146562932Y-45586057D01*
X146562932Y-45590867D01*
X146566232Y-46130982D01*
X146574124Y-46183790D01*
X146581381Y-46236765D01*
X146582732Y-46241382D01*
X146737491Y-46758861D01*
X146759897Y-46807351D01*
X146781721Y-46856140D01*
X146784312Y-46860192D01*
X147078091Y-47313436D01*
X147113177Y-47353656D01*
X147147846Y-47394392D01*
X147151471Y-47397553D01*
X147560650Y-47750125D01*
X147605621Y-47778884D01*
X147650323Y-47808249D01*
X147654690Y-47810266D01*
X148146378Y-48033823D01*
X148197638Y-48048812D01*
X148248760Y-48064442D01*
X148253517Y-48065153D01*
X148777647Y-48140215D01*
X148805224Y-48145700D01*
X159042776Y-48145700D01*
X159063478Y-48141582D01*
X159083086Y-48141582D01*
X159087843Y-48140871D01*
X159621537Y-48057774D01*
X159672590Y-48042165D01*
X159723920Y-48027155D01*
X159728287Y-48025137D01*
X160217207Y-47795589D01*
X160261822Y-47766282D01*
X160306880Y-47737467D01*
X160310504Y-47734304D01*
X160715346Y-47376760D01*
X160749939Y-47336112D01*
X160785102Y-47295805D01*
X160787693Y-47291753D01*
X161075912Y-46834954D01*
X161097721Y-46786200D01*
X161120143Y-46737675D01*
X161121492Y-46733058D01*
X161269918Y-46213726D01*
X161277165Y-46160820D01*
X161285068Y-46107943D01*
X161285068Y-46103133D01*
X161281768Y-45563018D01*
X161273876Y-45510210D01*
X161266619Y-45457235D01*
X161265268Y-45452618D01*
X161110509Y-44935139D01*
X161088128Y-44886703D01*
X161066280Y-44837860D01*
X161063688Y-44833808D01*
X160769910Y-44380564D01*
X160734783Y-44340297D01*
X160700154Y-44299608D01*
X160696529Y-44296446D01*
X160287349Y-43943875D01*
X160242371Y-43915110D01*
X160197677Y-43885751D01*
X160193310Y-43883734D01*
X159701622Y-43660177D01*
X159650362Y-43645188D01*
X159599240Y-43629558D01*
X159594483Y-43628847D01*
X159070353Y-43553785D01*
X159042776Y-43548300D01*
X148805224Y-43548300D01*
X148784522Y-43552418D01*
X148764914Y-43552418D01*
X148760157Y-43553129D01*
X148226462Y-43636226D01*
X148175387Y-43651842D01*
X148124080Y-43666845D01*
X148119713Y-43668863D01*
X147630793Y-43898411D01*
X147586148Y-43927737D01*
X147541120Y-43956534D01*
X147537495Y-43959696D01*
X147132654Y-44317241D01*
X147098038Y-44357914D01*
X147062899Y-44398195D01*
X147060307Y-44402247D01*
X146772088Y-44859045D01*
X146750272Y-44907815D01*
X146727857Y-44956325D01*
X146726508Y-44960942D01*
X146578082Y-45480274D01*
X146570836Y-45533174D01*
X146562932Y-45586057D01*
X127393700Y-45586057D01*
X127393700Y-41795700D01*
X180454300Y-41795700D01*
X180454301Y-126606300D01*
X180454301Y-126606300D01*
G37*
X180454301Y-126606300D02*
X127393700Y-126606300D01*
X127393700Y-125694213D01*
X152361392Y-125694213D01*
X152430857Y-125936397D01*
X152954302Y-126123144D01*
X153509368Y-126095362D01*
X153893143Y-125936397D01*
X153962608Y-125694213D01*
X153162000Y-124893605D01*
X152361392Y-125694213D01*
X127393700Y-125694213D01*
X127393700Y-124506302D01*
X151752856Y-124506302D01*
X151780638Y-125061368D01*
X151939603Y-125445143D01*
X152181787Y-125514608D01*
X152982395Y-124714000D01*
X153341605Y-124714000D01*
X154142213Y-125514608D01*
X154384397Y-125445143D01*
X154561756Y-124948011D01*
X154733011Y-125361458D01*
X155054542Y-125682989D01*
X155474643Y-125857000D01*
X155929357Y-125857000D01*
X156349458Y-125682989D01*
X156670989Y-125361458D01*
X156845000Y-124941357D01*
X156845000Y-124486643D01*
X157099000Y-124486643D01*
X157099000Y-124941357D01*
X157273011Y-125361458D01*
X157594542Y-125682989D01*
X158014643Y-125857000D01*
X158469357Y-125857000D01*
X158889458Y-125682989D01*
X159210989Y-125361458D01*
X159385000Y-124941357D01*
X159385000Y-124486643D01*
X159210989Y-124066542D01*
X158889458Y-123745011D01*
X158469357Y-123571000D01*
X158014643Y-123571000D01*
X157594542Y-123745011D01*
X157273011Y-124066542D01*
X157099000Y-124486643D01*
X156845000Y-124486643D01*
X156670989Y-124066542D01*
X156349458Y-123745011D01*
X155929357Y-123571000D01*
X155474643Y-123571000D01*
X155054542Y-123745011D01*
X154733011Y-124066542D01*
X154559000Y-124486643D01*
X154559000Y-124679069D01*
X154543362Y-124366632D01*
X154384397Y-123982857D01*
X154142213Y-123913392D01*
X153341605Y-124714000D01*
X152982395Y-124714000D01*
X152181787Y-123913392D01*
X151939603Y-123982857D01*
X151752856Y-124506302D01*
X127393700Y-124506302D01*
X127393700Y-122459750D01*
X137472000Y-122459750D01*
X137472000Y-123385309D01*
X137568673Y-123618698D01*
X137747301Y-123797327D01*
X137980690Y-123894000D01*
X138906250Y-123894000D01*
X139065000Y-123735250D01*
X139065000Y-122301000D01*
X139319000Y-122301000D01*
X139319000Y-123735250D01*
X139477750Y-123894000D01*
X140403310Y-123894000D01*
X140636699Y-123797327D01*
X140700238Y-123733787D01*
X152361392Y-123733787D01*
X153162000Y-124534395D01*
X153962608Y-123733787D01*
X153893143Y-123491603D01*
X153369698Y-123304856D01*
X152814632Y-123332638D01*
X152430857Y-123491603D01*
X152361392Y-123733787D01*
X140700238Y-123733787D01*
X140815327Y-123618698D01*
X140912000Y-123385309D01*
X140912000Y-122459750D01*
X140753250Y-122301000D01*
X139319000Y-122301000D01*
X139065000Y-122301000D01*
X137630750Y-122301000D01*
X137472000Y-122459750D01*
X127393700Y-122459750D01*
X127393700Y-120962691D01*
X137472000Y-120962691D01*
X137472000Y-121888250D01*
X137630750Y-122047000D01*
X139065000Y-122047000D01*
X139065000Y-120612750D01*
X139319000Y-120612750D01*
X139319000Y-122047000D01*
X140753250Y-122047000D01*
X140912000Y-121888250D01*
X140912000Y-120962691D01*
X140815327Y-120729302D01*
X140636699Y-120550673D01*
X140403310Y-120454000D01*
X139477750Y-120454000D01*
X139319000Y-120612750D01*
X139065000Y-120612750D01*
X138906250Y-120454000D01*
X137980690Y-120454000D01*
X137747301Y-120550673D01*
X137568673Y-120729302D01*
X137472000Y-120962691D01*
X127393700Y-120962691D01*
X127393700Y-101849574D01*
X137561000Y-101849574D01*
X137561000Y-102498426D01*
X137809305Y-103097887D01*
X138268113Y-103556695D01*
X138867574Y-103805000D01*
X139516426Y-103805000D01*
X140115887Y-103556695D01*
X140574695Y-103097887D01*
X140641751Y-102936000D01*
X151816370Y-102936000D01*
X153101000Y-104220631D01*
X153101000Y-104738752D01*
X153303633Y-105227951D01*
X153678049Y-105602367D01*
X153971697Y-105724000D01*
X153678049Y-105845633D01*
X153303633Y-106220049D01*
X153201757Y-106466000D01*
X153138526Y-106466000D01*
X153088498Y-106456049D01*
X153038470Y-106466000D01*
X153038466Y-106466000D01*
X152890286Y-106495475D01*
X152764665Y-106579412D01*
X152764663Y-106579414D01*
X152722251Y-106607753D01*
X152693912Y-106650165D01*
X151314168Y-108029910D01*
X151271753Y-108058251D01*
X151243413Y-108100665D01*
X151243412Y-108100666D01*
X151220113Y-108135536D01*
X151159475Y-108226287D01*
X151130000Y-108374467D01*
X151130000Y-108374470D01*
X151120049Y-108424498D01*
X151130000Y-108474526D01*
X151130001Y-115519967D01*
X151120049Y-115570000D01*
X151159475Y-115768211D01*
X151243412Y-115893832D01*
X151243415Y-115893835D01*
X151271754Y-115936247D01*
X151314166Y-115964586D01*
X152076765Y-116727185D01*
X152019000Y-116866643D01*
X152019000Y-117321357D01*
X152193011Y-117741458D01*
X152514542Y-118062989D01*
X152934643Y-118237000D01*
X153389357Y-118237000D01*
X153528815Y-118179235D01*
X159696765Y-124347185D01*
X159639000Y-124486643D01*
X159639000Y-124941357D01*
X159813011Y-125361458D01*
X160134542Y-125682989D01*
X160554643Y-125857000D01*
X161009357Y-125857000D01*
X161429458Y-125682989D01*
X161750989Y-125361458D01*
X161925000Y-124941357D01*
X161925000Y-124486643D01*
X161893977Y-124411745D01*
X174685861Y-124411745D01*
X174759995Y-124657864D01*
X175297223Y-124850965D01*
X175867454Y-124823778D01*
X176268005Y-124657864D01*
X176342139Y-124411745D01*
X175514000Y-123583605D01*
X174685861Y-124411745D01*
X161893977Y-124411745D01*
X161750989Y-124066542D01*
X161596192Y-123911745D01*
X166303861Y-123911745D01*
X166377995Y-124157864D01*
X166915223Y-124350965D01*
X167485454Y-124323778D01*
X167886005Y-124157864D01*
X167960139Y-123911745D01*
X167132000Y-123083605D01*
X166303861Y-123911745D01*
X161596192Y-123911745D01*
X161429458Y-123745011D01*
X161009357Y-123571000D01*
X160554643Y-123571000D01*
X160415185Y-123628765D01*
X154247235Y-117460815D01*
X154305000Y-117321357D01*
X154305000Y-116866643D01*
X154559000Y-116866643D01*
X154559000Y-117321357D01*
X154733011Y-117741458D01*
X155054542Y-118062989D01*
X155474643Y-118237000D01*
X155929357Y-118237000D01*
X156349458Y-118062989D01*
X156670989Y-117741458D01*
X156845000Y-117321357D01*
X156845000Y-116866643D01*
X157099000Y-116866643D01*
X157099000Y-117321357D01*
X157273011Y-117741458D01*
X157594542Y-118062989D01*
X157734001Y-118120754D01*
X157734001Y-119075967D01*
X157724049Y-119126000D01*
X157763475Y-119324211D01*
X157847412Y-119449832D01*
X157847415Y-119449835D01*
X157875754Y-119492247D01*
X157918166Y-119520586D01*
X159625414Y-121227835D01*
X159653753Y-121270247D01*
X159696165Y-121298586D01*
X159696167Y-121298588D01*
X159821788Y-121382525D01*
X159969968Y-121412000D01*
X159969972Y-121412000D01*
X160020000Y-121421951D01*
X160070028Y-121412000D01*
X165943536Y-121412000D01*
X165943536Y-121704000D01*
X165973106Y-121852659D01*
X166031024Y-121939340D01*
X166009378Y-121960986D01*
X166124253Y-122075861D01*
X165878136Y-122149995D01*
X165685035Y-122687223D01*
X165712222Y-123257454D01*
X165878136Y-123658005D01*
X166124255Y-123732139D01*
X166952395Y-122904000D01*
X166938252Y-122889858D01*
X167117858Y-122710252D01*
X167132000Y-122724395D01*
X167146142Y-122710252D01*
X167325748Y-122889858D01*
X167311605Y-122904000D01*
X168139745Y-123732139D01*
X168385864Y-123658005D01*
X168555081Y-123187223D01*
X174067035Y-123187223D01*
X174094222Y-123757454D01*
X174260136Y-124158005D01*
X174506255Y-124232139D01*
X175334395Y-123404000D01*
X175693605Y-123404000D01*
X176521745Y-124232139D01*
X176767864Y-124158005D01*
X176960965Y-123620777D01*
X176933778Y-123050546D01*
X176767864Y-122649995D01*
X176521745Y-122575861D01*
X175693605Y-123404000D01*
X175334395Y-123404000D01*
X174506255Y-122575861D01*
X174260136Y-122649995D01*
X174067035Y-123187223D01*
X168555081Y-123187223D01*
X168578965Y-123120777D01*
X168551778Y-122550546D01*
X168385864Y-122149995D01*
X168139747Y-122075861D01*
X168254622Y-121960986D01*
X168232976Y-121939340D01*
X168290894Y-121852659D01*
X168320464Y-121704000D01*
X168320464Y-120104000D01*
X168290894Y-119955341D01*
X168206686Y-119829314D01*
X168080659Y-119745106D01*
X167932000Y-119715536D01*
X166332000Y-119715536D01*
X166183341Y-119745106D01*
X166057314Y-119829314D01*
X165973106Y-119955341D01*
X165943536Y-120104000D01*
X165943536Y-120396000D01*
X160230421Y-120396000D01*
X158750000Y-118915580D01*
X158750000Y-118120754D01*
X158889458Y-118062989D01*
X159210989Y-117741458D01*
X159385000Y-117321357D01*
X159385000Y-116866643D01*
X159639000Y-116866643D01*
X159639000Y-117321357D01*
X159813011Y-117741458D01*
X160134542Y-118062989D01*
X160554643Y-118237000D01*
X161009357Y-118237000D01*
X161429458Y-118062989D01*
X161750989Y-117741458D01*
X161925000Y-117321357D01*
X161925000Y-116866643D01*
X161750989Y-116446542D01*
X161668197Y-116363750D01*
X164731000Y-116363750D01*
X164731000Y-116704309D01*
X164827673Y-116937698D01*
X165006301Y-117116327D01*
X165239690Y-117213000D01*
X165830250Y-117213000D01*
X165989000Y-117054250D01*
X165989000Y-116205000D01*
X166243000Y-116205000D01*
X166243000Y-117054250D01*
X166401750Y-117213000D01*
X166992310Y-117213000D01*
X167225699Y-117116327D01*
X167404327Y-116937698D01*
X167501000Y-116704309D01*
X167501000Y-116363750D01*
X167342250Y-116205000D01*
X166243000Y-116205000D01*
X165989000Y-116205000D01*
X164889750Y-116205000D01*
X164731000Y-116363750D01*
X161668197Y-116363750D01*
X161429458Y-116125011D01*
X161009357Y-115951000D01*
X160554643Y-115951000D01*
X160134542Y-116125011D01*
X159813011Y-116446542D01*
X159639000Y-116866643D01*
X159385000Y-116866643D01*
X159210989Y-116446542D01*
X158889458Y-116125011D01*
X158469357Y-115951000D01*
X158014643Y-115951000D01*
X157594542Y-116125011D01*
X157273011Y-116446542D01*
X157099000Y-116866643D01*
X156845000Y-116866643D01*
X156670989Y-116446542D01*
X156349458Y-116125011D01*
X156210000Y-116067246D01*
X156210000Y-115526420D01*
X156284729Y-115451691D01*
X164731000Y-115451691D01*
X164731000Y-115792250D01*
X164889750Y-115951000D01*
X165989000Y-115951000D01*
X165989000Y-115931000D01*
X166243000Y-115931000D01*
X166243000Y-115951000D01*
X167342250Y-115951000D01*
X167501000Y-115792250D01*
X167501000Y-115451691D01*
X167444795Y-115316000D01*
X170128116Y-115316000D01*
X170194797Y-115476983D01*
X170527017Y-115809203D01*
X170961085Y-115989000D01*
X171430915Y-115989000D01*
X171864983Y-115809203D01*
X172197203Y-115476983D01*
X172377000Y-115042915D01*
X172377000Y-114573085D01*
X172197203Y-114139017D01*
X171864983Y-113806797D01*
X171430915Y-113627000D01*
X170961085Y-113627000D01*
X170527017Y-113806797D01*
X170194797Y-114139017D01*
X170128116Y-114300000D01*
X167086134Y-114300000D01*
X167001275Y-114173000D01*
X167086134Y-114046000D01*
X168224972Y-114046000D01*
X168275000Y-114055951D01*
X168325028Y-114046000D01*
X168325032Y-114046000D01*
X168473212Y-114016525D01*
X168641247Y-113904247D01*
X168669588Y-113861832D01*
X169360835Y-113170585D01*
X169403247Y-113142247D01*
X169431586Y-113099835D01*
X169431588Y-113099833D01*
X169515525Y-112974212D01*
X169515525Y-112974211D01*
X169545000Y-112826032D01*
X169545000Y-112826028D01*
X169554951Y-112776000D01*
X169545000Y-112725972D01*
X169545000Y-111186630D01*
X169682992Y-111048638D01*
X169799000Y-110768571D01*
X169799000Y-110465429D01*
X169682992Y-110185362D01*
X169468638Y-109971008D01*
X169188571Y-109855000D01*
X168885429Y-109855000D01*
X168605362Y-109971008D01*
X168391008Y-110185362D01*
X168275000Y-110465429D01*
X168275000Y-110768571D01*
X168391008Y-111048638D01*
X168529001Y-111186631D01*
X168529000Y-112565579D01*
X168064580Y-113030000D01*
X167086134Y-113030000D01*
X167001165Y-112902835D01*
X166709749Y-112708117D01*
X166452767Y-112657000D01*
X165779233Y-112657000D01*
X165522251Y-112708117D01*
X165230835Y-112902835D01*
X165036117Y-113194251D01*
X164967741Y-113538000D01*
X165036117Y-113881749D01*
X165230725Y-114173000D01*
X165036117Y-114464251D01*
X164967741Y-114808000D01*
X165013251Y-115036794D01*
X165006301Y-115039673D01*
X164827673Y-115218302D01*
X164731000Y-115451691D01*
X156284729Y-115451691D01*
X159835836Y-111900585D01*
X159878247Y-111872247D01*
X159906586Y-111829835D01*
X159906588Y-111829833D01*
X159950098Y-111764714D01*
X159990525Y-111704212D01*
X160020000Y-111556032D01*
X160020000Y-111556028D01*
X160029951Y-111506000D01*
X160020000Y-111455972D01*
X160020000Y-110554942D01*
X160363453Y-110325453D01*
X160592942Y-109982000D01*
X162254116Y-109982000D01*
X162320797Y-110142983D01*
X162653017Y-110475203D01*
X163087085Y-110655000D01*
X163556915Y-110655000D01*
X163990983Y-110475203D01*
X164323203Y-110142983D01*
X164503000Y-109708915D01*
X164503000Y-109239085D01*
X164323203Y-108805017D01*
X163990983Y-108472797D01*
X163556915Y-108293000D01*
X163087085Y-108293000D01*
X162653017Y-108472797D01*
X162320797Y-108805017D01*
X162254116Y-108966000D01*
X160592942Y-108966000D01*
X160363453Y-108622547D01*
X159972803Y-108361522D01*
X159628318Y-108293000D01*
X159395682Y-108293000D01*
X159051197Y-108361522D01*
X158660547Y-108622547D01*
X158399522Y-109013197D01*
X158307863Y-109474000D01*
X158399522Y-109934803D01*
X158660547Y-110325453D01*
X159004000Y-110554942D01*
X159004000Y-111295579D01*
X155378166Y-114921414D01*
X155335754Y-114949753D01*
X155307415Y-114992165D01*
X155307412Y-114992168D01*
X155223475Y-115117789D01*
X155184049Y-115316000D01*
X155194001Y-115366033D01*
X155194001Y-116067246D01*
X155054542Y-116125011D01*
X154733011Y-116446542D01*
X154559000Y-116866643D01*
X154305000Y-116866643D01*
X154130989Y-116446542D01*
X153809458Y-116125011D01*
X153389357Y-115951000D01*
X152934643Y-115951000D01*
X152795185Y-116008765D01*
X152146000Y-115359580D01*
X152146000Y-108634918D01*
X153230215Y-107550704D01*
X153303633Y-107727951D01*
X153678049Y-108102367D01*
X153758126Y-108135536D01*
X153482000Y-108135536D01*
X153333341Y-108165106D01*
X153207314Y-108249314D01*
X153123106Y-108375341D01*
X153093536Y-108524000D01*
X153093536Y-110424000D01*
X153123106Y-110572659D01*
X153207314Y-110698686D01*
X153333341Y-110782894D01*
X153482000Y-110812464D01*
X155382000Y-110812464D01*
X155530659Y-110782894D01*
X155656686Y-110698686D01*
X155740894Y-110572659D01*
X155770464Y-110424000D01*
X155770464Y-108524000D01*
X155740894Y-108375341D01*
X155656686Y-108249314D01*
X155530659Y-108165106D01*
X155382000Y-108135536D01*
X155105874Y-108135536D01*
X155185951Y-108102367D01*
X155552318Y-107736000D01*
X159436952Y-107736000D01*
X159512000Y-107750928D01*
X159587048Y-107736000D01*
X166370001Y-107736000D01*
X166370000Y-108565814D01*
X166130797Y-108805017D01*
X165951000Y-109239085D01*
X165951000Y-109708915D01*
X166130797Y-110142983D01*
X166463017Y-110475203D01*
X166897085Y-110655000D01*
X167366915Y-110655000D01*
X167800983Y-110475203D01*
X168133203Y-110142983D01*
X168313000Y-109708915D01*
X168313000Y-109239085D01*
X168133203Y-108805017D01*
X167894000Y-108565814D01*
X167894000Y-107736000D01*
X168366957Y-107736000D01*
X168442000Y-107750927D01*
X168517043Y-107736000D01*
X169904370Y-107736000D01*
X170180001Y-108011631D01*
X170180001Y-108565813D01*
X169940797Y-108805017D01*
X169761000Y-109239085D01*
X169761000Y-109708915D01*
X169940797Y-110142983D01*
X170273017Y-110475203D01*
X170707085Y-110655000D01*
X171176915Y-110655000D01*
X171610983Y-110475203D01*
X171943203Y-110142983D01*
X172123000Y-109708915D01*
X172123000Y-109239085D01*
X173571000Y-109239085D01*
X173571000Y-109708915D01*
X173750797Y-110142983D01*
X174083017Y-110475203D01*
X174244000Y-110541884D01*
X174244000Y-110693972D01*
X174234049Y-110744000D01*
X174244000Y-110794028D01*
X174244000Y-110794031D01*
X174258297Y-110865904D01*
X174273475Y-110942211D01*
X174330447Y-111027475D01*
X174385753Y-111110247D01*
X174428168Y-111138588D01*
X177692448Y-114402869D01*
X177611863Y-114808000D01*
X177703522Y-115268803D01*
X177964547Y-115659453D01*
X178308000Y-115888942D01*
X178308000Y-116121579D01*
X175190166Y-119239414D01*
X175147754Y-119267753D01*
X175119415Y-119310165D01*
X175119412Y-119310168D01*
X175035475Y-119435789D01*
X174996049Y-119634000D01*
X175006001Y-119684033D01*
X175006001Y-119715536D01*
X174714000Y-119715536D01*
X174565341Y-119745106D01*
X174439314Y-119829314D01*
X174355106Y-119955341D01*
X174325536Y-120104000D01*
X174325536Y-121704000D01*
X174355106Y-121852659D01*
X174439314Y-121978686D01*
X174565341Y-122062894D01*
X174714000Y-122092464D01*
X174899227Y-122092464D01*
X174759995Y-122150136D01*
X174685861Y-122396255D01*
X175514000Y-123224395D01*
X176342139Y-122396255D01*
X176268005Y-122150136D01*
X176107555Y-122092464D01*
X176314000Y-122092464D01*
X176462659Y-122062894D01*
X176588686Y-121978686D01*
X176672894Y-121852659D01*
X176702464Y-121704000D01*
X176702464Y-120104000D01*
X176672894Y-119955341D01*
X176588686Y-119829314D01*
X176462659Y-119745106D01*
X176314000Y-119715536D01*
X176150884Y-119715536D01*
X179139836Y-116726585D01*
X179182247Y-116698247D01*
X179210586Y-116655835D01*
X179210588Y-116655833D01*
X179294525Y-116530212D01*
X179311168Y-116446542D01*
X179324000Y-116382032D01*
X179324000Y-116382029D01*
X179333951Y-116332001D01*
X179324000Y-116281973D01*
X179324000Y-115888942D01*
X179667453Y-115659453D01*
X179928478Y-115268803D01*
X180020137Y-114808000D01*
X179928478Y-114347197D01*
X179667453Y-113956547D01*
X179276803Y-113695522D01*
X178932318Y-113627000D01*
X178699682Y-113627000D01*
X178410869Y-113684448D01*
X175265872Y-110539452D01*
X175420983Y-110475203D01*
X175753203Y-110142983D01*
X175885727Y-109823041D01*
X177170086Y-109823041D01*
X177409611Y-110329134D01*
X177824577Y-110705041D01*
X178212961Y-110865904D01*
X178435000Y-110743915D01*
X178435000Y-109601000D01*
X178689000Y-109601000D01*
X178689000Y-110743915D01*
X178911039Y-110865904D01*
X179299423Y-110705041D01*
X179714389Y-110329134D01*
X179953914Y-109823041D01*
X179832629Y-109601000D01*
X178689000Y-109601000D01*
X178435000Y-109601000D01*
X177291371Y-109601000D01*
X177170086Y-109823041D01*
X175885727Y-109823041D01*
X175933000Y-109708915D01*
X175933000Y-109239085D01*
X175885728Y-109124959D01*
X177170086Y-109124959D01*
X177291371Y-109347000D01*
X178435000Y-109347000D01*
X178435000Y-108204085D01*
X178689000Y-108204085D01*
X178689000Y-109347000D01*
X179832629Y-109347000D01*
X179953914Y-109124959D01*
X179714389Y-108618866D01*
X179299423Y-108242959D01*
X178911039Y-108082096D01*
X178689000Y-108204085D01*
X178435000Y-108204085D01*
X178212961Y-108082096D01*
X177824577Y-108242959D01*
X177409611Y-108618866D01*
X177170086Y-109124959D01*
X175885728Y-109124959D01*
X175753203Y-108805017D01*
X175420983Y-108472797D01*
X175260000Y-108406116D01*
X175260000Y-108160420D01*
X178885836Y-104534585D01*
X178928247Y-104506247D01*
X178956586Y-104463835D01*
X178956588Y-104463833D01*
X179000098Y-104398714D01*
X179040525Y-104338212D01*
X179070000Y-104190032D01*
X179070000Y-104190028D01*
X179079951Y-104140000D01*
X179070000Y-104089972D01*
X179070000Y-102921884D01*
X179230983Y-102855203D01*
X179563203Y-102522983D01*
X179743000Y-102088915D01*
X179743000Y-101619085D01*
X179563203Y-101185017D01*
X179230983Y-100852797D01*
X178796915Y-100673000D01*
X178327085Y-100673000D01*
X177893017Y-100852797D01*
X177560797Y-101185017D01*
X177381000Y-101619085D01*
X177381000Y-102088915D01*
X177560797Y-102522983D01*
X177893017Y-102855203D01*
X178054001Y-102921885D01*
X178054000Y-103929579D01*
X174428166Y-107555414D01*
X174385754Y-107583753D01*
X174357415Y-107626165D01*
X174357412Y-107626168D01*
X174273475Y-107751789D01*
X174234049Y-107950000D01*
X174244001Y-108000033D01*
X174244001Y-108406115D01*
X174083017Y-108472797D01*
X173750797Y-108805017D01*
X173571000Y-109239085D01*
X172123000Y-109239085D01*
X171943203Y-108805017D01*
X171704000Y-108565814D01*
X171704000Y-107771042D01*
X171718927Y-107695999D01*
X171704000Y-107620956D01*
X171704000Y-107620952D01*
X171659788Y-107398683D01*
X171620743Y-107340247D01*
X171533882Y-107210251D01*
X171491371Y-107146629D01*
X171427749Y-107104118D01*
X170811883Y-106488253D01*
X170769371Y-106424629D01*
X170517317Y-106256212D01*
X170295048Y-106212000D01*
X170295043Y-106212000D01*
X170220000Y-106197073D01*
X170144957Y-106212000D01*
X168758138Y-106212000D01*
X168482000Y-106157072D01*
X168205863Y-106212000D01*
X167207048Y-106212000D01*
X167132000Y-106197072D01*
X167056952Y-106212000D01*
X160274000Y-106212000D01*
X160274000Y-102762186D01*
X160513203Y-102522983D01*
X160693000Y-102088915D01*
X160693000Y-101854000D01*
X162117863Y-101854000D01*
X162209522Y-102314803D01*
X162470547Y-102705453D01*
X162861197Y-102966478D01*
X163205682Y-103035000D01*
X163438318Y-103035000D01*
X163782803Y-102966478D01*
X164173453Y-102705453D01*
X164434478Y-102314803D01*
X164526137Y-101854000D01*
X165927863Y-101854000D01*
X166019522Y-102314803D01*
X166280547Y-102705453D01*
X166671197Y-102966478D01*
X167015682Y-103035000D01*
X167248318Y-103035000D01*
X167592803Y-102966478D01*
X167983453Y-102705453D01*
X168244478Y-102314803D01*
X168336137Y-101854000D01*
X169737863Y-101854000D01*
X169829522Y-102314803D01*
X170090547Y-102705453D01*
X170481197Y-102966478D01*
X170825682Y-103035000D01*
X171058318Y-103035000D01*
X171402803Y-102966478D01*
X171793453Y-102705453D01*
X172054478Y-102314803D01*
X172146137Y-101854000D01*
X173547863Y-101854000D01*
X173639522Y-102314803D01*
X173900547Y-102705453D01*
X174291197Y-102966478D01*
X174635682Y-103035000D01*
X174868318Y-103035000D01*
X175212803Y-102966478D01*
X175603453Y-102705453D01*
X175864478Y-102314803D01*
X175956137Y-101854000D01*
X175864478Y-101393197D01*
X175603453Y-101002547D01*
X175212803Y-100741522D01*
X174868318Y-100673000D01*
X174635682Y-100673000D01*
X174291197Y-100741522D01*
X173900547Y-101002547D01*
X173639522Y-101393197D01*
X173547863Y-101854000D01*
X172146137Y-101854000D01*
X172054478Y-101393197D01*
X171793453Y-101002547D01*
X171402803Y-100741522D01*
X171058318Y-100673000D01*
X170825682Y-100673000D01*
X170481197Y-100741522D01*
X170090547Y-101002547D01*
X169829522Y-101393197D01*
X169737863Y-101854000D01*
X168336137Y-101854000D01*
X168244478Y-101393197D01*
X167983453Y-101002547D01*
X167592803Y-100741522D01*
X167248318Y-100673000D01*
X167015682Y-100673000D01*
X166671197Y-100741522D01*
X166280547Y-101002547D01*
X166019522Y-101393197D01*
X165927863Y-101854000D01*
X164526137Y-101854000D01*
X164434478Y-101393197D01*
X164173453Y-101002547D01*
X163782803Y-100741522D01*
X163438318Y-100673000D01*
X163205682Y-100673000D01*
X162861197Y-100741522D01*
X162470547Y-101002547D01*
X162209522Y-101393197D01*
X162117863Y-101854000D01*
X160693000Y-101854000D01*
X160693000Y-101619085D01*
X160513203Y-101185017D01*
X160180983Y-100852797D01*
X159746915Y-100673000D01*
X159277085Y-100673000D01*
X158843017Y-100852797D01*
X158510797Y-101185017D01*
X158331000Y-101619085D01*
X158331000Y-102088915D01*
X158510797Y-102522983D01*
X158750000Y-102762186D01*
X158750001Y-106212000D01*
X155552318Y-106212000D01*
X155185951Y-105845633D01*
X154892303Y-105724000D01*
X155185951Y-105602367D01*
X155560367Y-105227951D01*
X155763000Y-104738752D01*
X155763000Y-104209248D01*
X155560367Y-103720049D01*
X155185951Y-103345633D01*
X154696752Y-103143000D01*
X154178631Y-103143000D01*
X152723883Y-101688253D01*
X152681371Y-101624629D01*
X152429317Y-101456212D01*
X152207048Y-101412000D01*
X152207043Y-101412000D01*
X152132000Y-101397073D01*
X152056957Y-101412000D01*
X140641751Y-101412000D01*
X140574695Y-101250113D01*
X140115887Y-100791305D01*
X139516426Y-100543000D01*
X138867574Y-100543000D01*
X138268113Y-100791305D01*
X137809305Y-101250113D01*
X137561000Y-101849574D01*
X127393700Y-101849574D01*
X127393700Y-74030000D01*
X146285536Y-74030000D01*
X146285536Y-75830000D01*
X146315106Y-75978659D01*
X146399314Y-76104686D01*
X146525341Y-76188894D01*
X146674000Y-76218464D01*
X148474000Y-76218464D01*
X148622659Y-76188894D01*
X148748686Y-76104686D01*
X148832894Y-75978659D01*
X148862464Y-75830000D01*
X148862464Y-74030000D01*
X158985536Y-74030000D01*
X158985536Y-75830000D01*
X159015106Y-75978659D01*
X159099314Y-76104686D01*
X159225341Y-76188894D01*
X159374000Y-76218464D01*
X161174000Y-76218464D01*
X161322659Y-76188894D01*
X161448686Y-76104686D01*
X161532894Y-75978659D01*
X161562464Y-75830000D01*
X161562464Y-74030000D01*
X161532894Y-73881341D01*
X161448686Y-73755314D01*
X161322659Y-73671106D01*
X161174000Y-73641536D01*
X160599939Y-73641536D01*
X160999628Y-73475979D01*
X161359979Y-73115628D01*
X161555000Y-72644807D01*
X161555000Y-72135193D01*
X161359979Y-71664372D01*
X160999628Y-71304021D01*
X160528807Y-71109000D01*
X160019193Y-71109000D01*
X159548372Y-71304021D01*
X159188021Y-71664372D01*
X158993000Y-72135193D01*
X158993000Y-72644807D01*
X159188021Y-73115628D01*
X159548372Y-73475979D01*
X159948061Y-73641536D01*
X159374000Y-73641536D01*
X159225341Y-73671106D01*
X159099314Y-73755314D01*
X159015106Y-73881341D01*
X158985536Y-74030000D01*
X148862464Y-74030000D01*
X148832894Y-73881341D01*
X148748686Y-73755314D01*
X148622659Y-73671106D01*
X148474000Y-73641536D01*
X147899939Y-73641536D01*
X148299628Y-73475979D01*
X148659979Y-73115628D01*
X148855000Y-72644807D01*
X148855000Y-72135193D01*
X148659979Y-71664372D01*
X148299628Y-71304021D01*
X147828807Y-71109000D01*
X147319193Y-71109000D01*
X146848372Y-71304021D01*
X146488021Y-71664372D01*
X146293000Y-72135193D01*
X146293000Y-72644807D01*
X146488021Y-73115628D01*
X146848372Y-73475979D01*
X147248061Y-73641536D01*
X146674000Y-73641536D01*
X146525341Y-73671106D01*
X146399314Y-73755314D01*
X146315106Y-73881341D01*
X146285536Y-74030000D01*
X127393700Y-74030000D01*
X127393700Y-45586057D01*
X146562932Y-45586057D01*
X146562932Y-45590867D01*
X146566232Y-46130982D01*
X146574124Y-46183790D01*
X146581381Y-46236765D01*
X146582732Y-46241382D01*
X146737491Y-46758861D01*
X146759897Y-46807351D01*
X146781721Y-46856140D01*
X146784312Y-46860192D01*
X147078091Y-47313436D01*
X147113177Y-47353656D01*
X147147846Y-47394392D01*
X147151471Y-47397553D01*
X147560650Y-47750125D01*
X147605621Y-47778884D01*
X147650323Y-47808249D01*
X147654690Y-47810266D01*
X148146378Y-48033823D01*
X148197638Y-48048812D01*
X148248760Y-48064442D01*
X148253517Y-48065153D01*
X148777647Y-48140215D01*
X148805224Y-48145700D01*
X159042776Y-48145700D01*
X159063478Y-48141582D01*
X159083086Y-48141582D01*
X159087843Y-48140871D01*
X159621537Y-48057774D01*
X159672590Y-48042165D01*
X159723920Y-48027155D01*
X159728287Y-48025137D01*
X160217207Y-47795589D01*
X160261822Y-47766282D01*
X160306880Y-47737467D01*
X160310504Y-47734304D01*
X160715346Y-47376760D01*
X160749939Y-47336112D01*
X160785102Y-47295805D01*
X160787693Y-47291753D01*
X161075912Y-46834954D01*
X161097721Y-46786200D01*
X161120143Y-46737675D01*
X161121492Y-46733058D01*
X161269918Y-46213726D01*
X161277165Y-46160820D01*
X161285068Y-46107943D01*
X161285068Y-46103133D01*
X161281768Y-45563018D01*
X161273876Y-45510210D01*
X161266619Y-45457235D01*
X161265268Y-45452618D01*
X161110509Y-44935139D01*
X161088128Y-44886703D01*
X161066280Y-44837860D01*
X161063688Y-44833808D01*
X160769910Y-44380564D01*
X160734783Y-44340297D01*
X160700154Y-44299608D01*
X160696529Y-44296446D01*
X160287349Y-43943875D01*
X160242371Y-43915110D01*
X160197677Y-43885751D01*
X160193310Y-43883734D01*
X159701622Y-43660177D01*
X159650362Y-43645188D01*
X159599240Y-43629558D01*
X159594483Y-43628847D01*
X159070353Y-43553785D01*
X159042776Y-43548300D01*
X148805224Y-43548300D01*
X148784522Y-43552418D01*
X148764914Y-43552418D01*
X148760157Y-43553129D01*
X148226462Y-43636226D01*
X148175387Y-43651842D01*
X148124080Y-43666845D01*
X148119713Y-43668863D01*
X147630793Y-43898411D01*
X147586148Y-43927737D01*
X147541120Y-43956534D01*
X147537495Y-43959696D01*
X147132654Y-44317241D01*
X147098038Y-44357914D01*
X147062899Y-44398195D01*
X147060307Y-44402247D01*
X146772088Y-44859045D01*
X146750272Y-44907815D01*
X146727857Y-44956325D01*
X146726508Y-44960942D01*
X146578082Y-45480274D01*
X146570836Y-45533174D01*
X146562932Y-45586057D01*
X127393700Y-45586057D01*
X127393700Y-41795700D01*
X180454300Y-41795700D01*
X180454301Y-126606300D01*
G04 #@! TD*
M02*
